<svg width="400" height="578" viewBox="0 0 400 578" fill="none" xmlns="http://www.w3.org/2000/svg">
<rect x="399.701" y="62.3735" width="500" height="300" rx="15" transform="rotate(102 399.701 62.3735)" fill="#3A86FF"/>
<path d="M322.466 101.641C322.905 99.5753 323.759 97.8701 325.026 96.5256C326.293 95.181 327.852 94.2583 329.704 93.7576C331.576 93.2613 333.628 93.2505 335.861 93.7251C338.115 94.2041 340.004 95.0637 341.529 96.3038C343.07 97.5693 344.147 99.1178 344.761 100.949C345.392 102.806 345.467 104.862 344.988 107.115C344.443 109.682 343.375 111.68 341.784 113.108C340.194 114.537 338.26 115.271 335.984 115.31L336.935 110.834C338.029 110.718 338.95 110.281 339.7 109.525C340.47 108.772 341.002 107.708 341.295 106.33C341.761 104.139 341.421 102.3 340.276 100.814C339.151 99.3317 337.379 98.3333 334.958 97.8188C332.537 97.3043 330.535 97.4894 328.951 98.3741C327.384 99.2841 326.385 100.751 325.955 102.775C325.533 104.758 325.748 106.363 326.6 107.591C327.467 108.844 328.756 109.761 330.464 110.342L331.642 104.802L334.647 105.441L332.611 115.019L320.56 112.457L321.345 108.764L324.291 109.063C323.399 108.132 322.784 107.074 322.447 105.89C322.109 104.706 322.116 103.29 322.466 101.641ZM337.428 121.291C337.583 120.561 337.931 120.002 338.471 119.616C339.007 119.25 339.609 119.138 340.276 119.28C340.944 119.421 341.438 119.766 341.758 120.314C342.094 120.887 342.184 121.539 342.029 122.269C341.874 123 341.528 123.548 340.992 123.914C340.473 124.305 339.88 124.43 339.212 124.288C338.544 124.146 338.042 123.788 337.706 123.215C337.365 122.663 337.273 122.022 337.428 121.291ZM319.918 115.476L335.443 118.776L334.592 122.782L319.067 119.482L319.918 115.476ZM318.377 122.725L333.903 126.025L333.151 129.562L330.455 129.316C331.271 129.991 331.855 130.835 332.207 131.848C332.554 132.881 332.597 134.013 332.335 135.245C331.927 137.164 331.005 138.528 329.569 139.335C328.132 140.142 326.245 140.297 323.908 139.8L315.144 137.937L315.996 133.931L324.384 135.714C325.72 135.998 326.8 135.944 327.625 135.552C328.449 135.16 328.984 134.39 329.228 133.243C329.467 132.116 329.268 131.103 328.63 130.204C327.988 129.326 326.958 128.736 325.539 128.435L317.526 126.732L318.377 122.725ZM314.529 140.829L337.066 145.62L336.214 149.626L322.911 146.799L328.032 153.645L327.021 158.402L321.297 150.545L311.276 156.135L312.34 151.127L321.472 146.492L313.678 144.836L314.529 140.829ZM309.261 163.766C309.581 162.264 310.213 160.981 311.159 159.917C312.101 158.874 313.252 158.126 314.613 157.674C315.99 157.247 317.483 157.204 319.089 157.546C320.696 157.887 322.029 158.541 323.089 159.508C324.169 160.479 324.927 161.633 325.363 162.969C325.794 164.325 325.85 165.755 325.531 167.257C325.216 168.739 324.588 170.001 323.646 171.044C322.701 172.108 321.539 172.854 320.161 173.28C318.8 173.733 317.316 173.788 315.71 173.446C314.103 173.105 312.759 172.449 311.679 171.477C310.615 170.532 309.867 169.38 309.436 168.024C309.005 166.667 308.946 165.248 309.261 163.766ZM312.736 164.505C312.514 165.548 312.707 166.538 313.315 167.474C313.944 168.415 315.03 169.049 316.574 169.377C318.119 169.706 319.359 169.566 320.295 168.958C321.252 168.354 321.839 167.541 322.057 166.519C322.283 165.455 322.081 164.452 321.453 163.511C320.84 162.596 319.762 161.974 318.218 161.646C316.674 161.318 315.425 161.445 314.473 162.028C313.536 162.636 312.957 163.461 312.736 164.505ZM306.8 176.115C306.955 175.384 307.314 174.828 307.875 174.446C308.431 174.084 309.033 173.972 309.68 174.11C310.348 174.252 310.862 174.601 311.224 175.157C311.581 175.735 311.682 176.389 311.527 177.119C311.371 177.85 311.015 178.396 310.459 178.757C309.898 179.139 309.283 179.26 308.615 179.118C307.969 178.98 307.467 178.623 307.109 178.045C306.748 177.489 306.645 176.845 306.8 176.115Z" fill="white"/>
<g clip-path="url(#clip0_9840_4955)">
<path d="M259.185 471.907C258.612 472.195 257.963 472.363 257.335 472.434C256.706 472.505 256.001 472.457 255.316 472.312C254.631 472.166 253.967 471.923 253.422 471.603C252.877 471.282 252.352 470.864 251.946 470.369C251.366 469.734 250.367 469.624 249.732 470.205C249.097 470.786 248.987 471.785 249.568 472.419C250.226 473.172 250.925 473.73 251.82 474.329C252.715 474.928 253.673 475.234 254.651 475.442C255.629 475.65 256.649 475.662 257.689 475.577C258.632 475.47 259.616 475.168 260.523 474.748C261.312 474.404 261.618 473.447 261.274 472.658C260.931 471.87 259.973 471.564 259.185 471.907Z" fill="#FAFAFA"/>
<path d="M260.878 477.89C258.77 478.669 256.375 478.875 254.027 478.376C251.679 477.877 249.575 476.715 247.966 475.146C247.386 474.511 246.345 474.597 245.71 475.177C245.055 475.856 245.161 476.799 245.742 477.433C247.778 479.4 250.329 480.862 253.362 481.507C256.296 482.13 259.32 481.853 261.979 480.885C262.768 480.541 263.269 479.625 262.926 478.837C262.582 478.048 261.764 477.567 260.878 477.89Z" fill="#FAFAFA"/>
<path d="M262.606 484.187C259.514 485.268 256.099 485.462 252.676 484.734C249.252 484.007 246.232 482.342 243.826 480.195C243.127 479.638 242.205 479.646 241.549 480.325C240.992 481.024 241 481.946 241.679 482.601C244.491 485.244 247.979 487.11 251.989 487.962C256 488.815 259.946 488.529 263.589 487.259C264.455 487.034 264.858 486.097 264.634 485.231C264.311 484.345 263.472 483.962 262.606 484.187Z" fill="#FAFAFA"/>
<path d="M264.335 490.484C260.279 491.769 255.803 492.147 251.303 491.19C246.804 490.234 242.847 488.166 239.686 485.245C238.986 484.687 238.064 484.696 237.409 485.374C236.851 486.074 236.86 486.996 237.538 487.651C241.148 490.872 245.552 493.239 250.638 494.32C255.724 495.401 260.711 495.03 265.318 493.556C266.183 493.331 266.587 492.394 266.362 491.528C266.137 490.663 265.201 490.259 264.335 490.484Z" fill="#FAFAFA"/>
</g>
<path d="M218.66 72.8095L239.119 77.158L240.703 69.705C240.87 68.9205 240.601 68.1065 239.515 67.8756C238.428 67.6447 237.852 68.2791 237.685 69.0636L236.743 73.4992L219.302 69.7921L220.245 65.3565C220.411 64.572 220.143 63.758 219.057 63.5271C217.97 63.2962 217.394 63.9306 217.227 64.7151L214.7 76.6038C214.533 77.3883 214.802 78.2023 215.888 78.4332L223.492 80.0494C224.367 80.2354 225.084 79.9778 225.322 78.8614C225.559 77.7449 225.009 77.218 224.134 77.032L218.038 75.7364L218.66 72.8095Z" fill="#FAFAFA"/>
<path d="M222.519 90.1153L220.711 98.6244C220.499 99.6201 220.502 100.346 221.036 101.248C221.641 102.26 222.437 102.523 223.523 102.754L229.709 104.069C230.795 104.3 231.629 104.383 232.593 103.705C233.447 103.098 233.746 102.436 233.957 101.44L236.087 91.4222C236.253 90.6377 235.985 89.8237 234.899 89.5928C233.812 89.3619 233.236 89.9963 233.069 90.7808L230.863 101.161L223.651 99.6279L225.453 91.1489C225.935 88.8858 225.032 87.4955 222.769 87.0145L212.932 84.9236L210.084 98.3209C209.917 99.1055 210.186 99.9194 211.272 100.15C212.358 100.381 212.935 99.7468 213.101 98.9623L215.308 88.5824L222.519 90.1153Z" fill="#FAFAFA"/>
<path d="M226.247 122.878L221.238 121.813C219.548 121.454 219.176 120.681 219.356 119.836L220.613 113.922C220.78 113.138 220.511 112.324 219.425 112.093C218.339 111.862 217.762 112.496 217.595 113.281L216.338 119.195C216.159 120.04 215.505 120.595 213.815 120.235L208.806 119.171L211.012 108.791C211.179 108.006 210.911 107.192 209.824 106.961C208.738 106.731 208.162 107.365 207.995 108.149L205.789 118.529C205.423 120.249 206.445 121.823 208.165 122.188L213.958 123.42C215.165 123.676 216.091 123.621 217.135 122.865C217.781 123.98 218.605 124.407 219.812 124.664L225.605 125.895C227.325 126.261 228.899 125.239 229.264 123.519L231.47 113.139C231.637 112.355 231.369 111.541 230.282 111.31C229.196 111.079 228.62 111.713 228.453 112.498L226.247 122.878Z" fill="#FAFAFA"/>
<path d="M213.419 135.155L224.704 137.553C225.459 137.714 226.29 137.512 226.534 136.365C226.777 135.219 226.1 134.696 225.346 134.536L211.043 131.496L209.157 140.367L203.002 139.059C202.036 138.853 201.403 139.16 201.172 140.247C200.942 141.333 201.395 141.871 202.361 142.076L208.516 143.384C208.349 144.169 208.618 144.983 209.704 145.214C210.79 145.445 211.367 144.81 211.533 144.026L220.254 145.879C221.008 146.04 221.84 145.838 222.083 144.691C222.327 143.545 221.65 143.022 220.895 142.862L212.175 141.008L213.419 135.155Z" fill="#FAFAFA"/>
<path d="M213.649 182.145L212.078 189.538C211.911 190.323 212.179 191.137 213.266 191.368C214.352 191.598 214.928 190.964 215.095 190.18L217.308 179.769L204.061 176.954L202.169 185.855L194.958 184.322L196.439 177.352C196.542 176.869 197.112 176.265 197.383 175.881L197.967 175.059C198.189 174.759 198.337 174.507 198.414 174.145C198.581 173.36 197.998 172.543 197.213 172.376C196.157 172.151 195.693 172.999 195.158 173.737L194.401 174.774C193.909 175.458 193.601 175.866 193.435 176.65L192.011 183.349C191.78 184.435 191.734 185.245 192.479 186.192C193.098 186.986 193.743 187.218 194.678 187.417L201.136 188.789C202.192 189.014 202.935 189.077 203.899 188.399C204.747 187.822 205.052 187.13 205.257 186.165L206.437 180.613L213.649 182.145Z" fill="#FAFAFA"/>
<path d="M209.668 200.875C209.482 201.75 209.951 202.512 210.856 202.705C211.64 202.872 212.499 202.392 212.666 201.607L213.051 199.797C213.275 198.741 212.512 198.326 211.818 198.179L191.752 193.914C190.364 193.619 189.736 194.053 189.434 195.471L187.1 206.454C186.811 207.812 187.166 208.518 188.584 208.82L195.343 210.256C196.731 210.551 197.429 210.384 197.749 208.876L199.891 198.797L209.668 200.875ZM194.988 207.027L190.342 206.04L192.227 197.168L196.874 198.156L194.988 207.027Z" fill="#FAFAFA"/>
<path d="M203.166 231.464L199.002 230.579C197.674 230.297 197.692 230.363 197.028 229.182L194.323 224.254C193.819 223.359 193.735 223.309 192.739 223.098L185.467 221.552C184.502 221.347 183.869 221.654 183.638 222.74C183.407 223.826 183.86 224.364 184.826 224.569L190.68 225.814C191.736 226.038 191.783 226.111 192.311 227.043L195.064 232.044C195.608 233.043 195.736 233.038 196.792 233.263L205.542 235.123L208.39 221.725C208.595 220.76 207.866 220.037 207.202 219.896L205.693 219.575C205.029 219.434 204.069 219.798 203.864 220.763C203.658 221.729 204.388 222.452 205.052 222.593L203.166 231.464Z" fill="#FAFAFA"/>
<path d="M192.583 245.794L199.794 247.327L199.191 250.164L191.98 248.631L192.583 245.794ZM203.132 246.46C203.35 245.434 202.729 244.797 201.944 244.63L193.224 242.777C193.423 241.842 193.245 241.047 192.847 240.395C192.45 239.742 191.753 239.311 190.818 239.112L183.636 237.585C181.796 237.194 180.375 238.09 179.977 239.961L178.092 248.833C177.694 250.703 178.627 252.1 180.468 252.491L187.649 254.018C188.585 254.217 189.397 254.105 190.025 253.671C190.654 253.237 191.14 252.584 191.338 251.648L200.059 253.502C200.843 253.668 201.67 253.34 201.888 252.314L203.132 246.46ZM182.995 240.603L190.207 242.136L188.321 251.007L181.109 249.474L182.995 240.603Z" fill="#FAFAFA"/>
<path d="M171.877 292.908C172.063 292.033 171.594 291.271 170.689 291.079C169.874 290.906 169.052 291.362 168.86 292.267L168.539 293.776C168.346 294.681 168.912 295.432 169.727 295.605L190.185 299.953C190.97 300.12 191.835 299.61 192.014 298.765L194.541 286.877C194.721 286.032 194.138 285.214 193.353 285.047L185.629 283.405C184.844 283.239 183.979 283.749 183.799 284.594L181.593 294.973L171.877 292.908ZM186.496 286.744L191.203 287.744L189.318 296.615L184.611 295.615L186.496 286.744Z" fill="#FAFAFA"/>
<path d="M189.605 310.103C189.957 308.443 188.888 306.797 187.229 306.444L169.788 302.737C168.098 302.378 166.495 303.393 166.129 305.113L164.243 313.984C163.878 315.704 164.93 317.284 166.62 317.643L184.06 321.35C185.72 321.703 187.366 320.634 187.719 318.974L189.605 310.103ZM169.147 305.754L186.587 309.461L184.702 318.333L167.261 314.625L169.147 305.754Z" fill="#FAFAFA"/>
<path d="M184.989 331.82C185.341 330.16 184.272 328.514 182.612 328.161L165.172 324.454C163.482 324.095 161.879 325.11 161.513 326.83L159.627 335.701C159.262 337.421 160.314 339.001 162.003 339.36L179.444 343.067C181.104 343.42 182.75 342.351 183.103 340.691L184.989 331.82ZM164.53 327.471L181.971 331.179L180.085 340.05L162.645 336.343L164.53 327.471Z" fill="#FAFAFA"/>
<path d="M180.372 353.537C180.725 351.877 179.656 350.231 177.996 349.878L160.556 346.171C158.866 345.812 157.262 346.827 156.897 348.547L155.011 357.418C154.646 359.138 155.697 360.718 157.387 361.077L174.828 364.784C176.488 365.137 178.134 364.068 178.487 362.408L180.372 353.537ZM159.914 349.189L177.355 352.896L175.469 361.767L158.029 358.06L159.914 349.189Z" fill="#FAFAFA"/>
<path d="M171.14 396.971C171.493 395.312 170.424 393.665 168.764 393.313L151.323 389.605C149.634 389.246 148.03 390.262 147.665 391.982L145.779 400.853C145.413 402.573 146.465 404.152 148.155 404.512L165.596 408.219C167.255 408.571 168.902 407.502 169.254 405.843L171.14 396.971ZM150.682 392.623L168.123 396.33L166.237 405.201L148.796 401.494L150.682 392.623Z" fill="#FAFAFA"/>
<path d="M166.524 418.689C166.877 417.029 165.808 415.383 164.148 415.03L146.707 411.323C145.017 410.964 143.414 411.979 143.048 413.699L141.163 422.57C140.797 424.29 141.849 425.87 143.539 426.229L160.98 429.936C162.639 430.289 164.286 429.219 164.638 427.56L166.524 418.689ZM146.066 414.34L163.507 418.047L161.621 426.918L144.18 423.211L146.066 414.34Z" fill="#FAFAFA"/>
<path d="M161.908 440.406C162.261 438.746 161.191 437.1 159.532 436.747L142.091 433.04C140.401 432.681 138.798 433.696 138.432 435.416L136.547 444.287C136.181 446.007 137.233 447.587 138.923 447.946L156.363 451.653C158.023 452.006 159.669 450.937 160.022 449.277L161.908 440.406ZM141.45 436.057L158.89 439.764L157.005 448.636L139.564 444.928L141.45 436.057Z" fill="#FAFAFA"/>
<path d="M157.292 462.123C157.644 460.463 156.575 458.817 154.916 458.464L137.475 454.757C135.785 454.398 134.182 455.413 133.816 457.133L131.931 466.004C131.565 467.724 132.617 469.304 134.307 469.663L151.747 473.37C153.407 473.723 155.053 472.654 155.406 470.994L157.292 462.123ZM136.834 457.774L154.274 461.482L152.389 470.353L134.948 466.646L136.834 457.774Z" fill="#FAFAFA"/>
<path opacity="0.8" d="M174.652 62.4791L174.928 61.1786C175.217 61.1877 175.481 61.1466 175.721 61.0553C175.961 60.964 176.176 60.8354 176.365 60.6694C176.555 60.5034 176.713 60.3061 176.84 60.0775C176.966 59.8517 177.058 59.6026 177.116 59.3303C177.221 58.8385 177.191 58.3717 177.026 57.9301C176.861 57.4913 176.563 57.1085 176.133 56.7819C175.702 56.458 175.142 56.2228 174.453 56.0763C173.759 55.9286 173.149 55.9152 172.623 56.0359C172.098 56.1594 171.671 56.3896 171.344 56.7267C171.017 57.0638 170.801 57.4754 170.698 57.9617C170.641 58.2313 170.622 58.4946 170.643 58.7517C170.666 59.0122 170.729 59.2564 170.832 59.4845C170.934 59.7125 171.075 59.9167 171.255 60.0972C171.436 60.281 171.658 60.4283 171.919 60.5389L171.638 61.8385C171.233 61.6799 170.876 61.463 170.565 61.1879C170.257 60.9162 170.008 60.5976 169.819 60.232C169.632 59.8698 169.511 59.4752 169.456 59.0483C169.402 58.6214 169.424 58.1732 169.524 57.7035C169.681 56.9644 169.996 56.343 170.469 55.8394C170.945 55.3364 171.546 54.9879 172.273 54.7939C172.999 54.6026 173.817 54.6035 174.725 54.7966C175.637 54.9904 176.383 55.3234 176.966 55.7956C177.551 56.2685 177.957 56.8311 178.184 57.4836C178.414 58.1366 178.451 58.8313 178.294 59.5677C178.198 60.0206 178.043 60.4291 177.829 60.7932C177.617 61.1606 177.353 61.4747 177.036 61.7356C176.722 61.997 176.364 62.1924 175.962 62.3219C175.562 62.4519 175.126 62.5043 174.652 62.4791ZM168.047 64.5289C168.134 64.1232 168.287 63.7724 168.506 63.4764C168.729 63.1809 169.005 62.9681 169.335 62.8378C169.664 62.7102 170.038 62.6911 170.458 62.7803C170.819 62.857 171.102 62.9897 171.306 63.1783C171.509 63.3668 171.654 63.5937 171.74 63.8588C171.826 64.124 171.873 64.4098 171.88 64.7163C171.888 65.0229 171.877 65.3314 171.849 65.642C171.812 66.0349 171.782 66.3539 171.759 66.5987C171.739 66.8442 171.751 67.0282 171.794 67.1508C171.838 67.2733 171.935 67.3506 172.085 67.3824L172.114 67.3886C172.478 67.466 172.782 67.4232 173.026 67.2601C173.269 67.0997 173.433 66.8181 173.519 66.4152C173.608 65.9956 173.585 65.6451 173.451 65.3638C173.318 65.0858 173.149 64.877 172.943 64.7375L173.459 63.6229C173.819 63.8446 174.089 64.1142 174.272 64.4317C174.456 64.7527 174.565 65.0997 174.599 65.4729C174.636 65.8466 174.613 66.2266 174.531 66.6129C174.477 66.8686 174.389 67.133 174.267 67.4062C174.147 67.6828 173.981 67.9293 173.77 68.1458C173.558 68.365 173.287 68.5238 172.958 68.6224C172.632 68.7216 172.236 68.7215 171.769 68.6223L167.517 67.7186L167.776 66.5015L168.651 66.6875L168.662 66.6375C168.518 66.5226 168.385 66.3681 168.264 66.1739C168.143 65.9796 168.057 65.7451 168.008 65.4704C167.959 65.1957 167.972 64.8818 168.047 64.5289ZM168.99 65.0125C168.917 65.3571 168.922 65.6661 169.007 65.9396C169.09 66.2158 169.228 66.4412 169.42 66.6157C169.615 66.7936 169.839 66.9094 170.092 66.9631L170.917 67.1385C170.882 67.0846 170.858 66.9896 170.847 66.8535C170.837 66.7208 170.836 66.5709 170.842 66.4038C170.851 66.2373 170.861 66.0753 170.871 65.9177C170.884 65.7608 170.895 65.6294 170.903 65.5236C170.924 65.2754 170.919 65.0435 170.89 64.8281C170.859 64.6155 170.789 64.4349 170.678 64.2865C170.569 64.1414 170.404 64.0453 170.182 63.998C169.873 63.9324 169.616 63.9968 169.409 64.191C169.205 64.3857 169.065 64.6596 168.99 65.0125ZM167.165 69.3786L173.567 70.7395L173.311 71.9441L172.294 71.7279L172.28 71.7946C172.6 71.9845 172.827 72.2478 172.961 72.5843C173.098 72.9241 173.127 73.2816 173.047 73.6568C173.031 73.7346 173.008 73.8257 172.98 73.9301C172.952 74.0373 172.927 74.1206 172.905 74.1799L171.713 73.9265C171.738 73.8795 171.772 73.7938 171.816 73.6695C171.862 73.5458 171.899 73.4201 171.927 73.2922C171.989 72.9977 171.982 72.7218 171.906 72.4646C171.833 72.2107 171.7 71.9938 171.509 71.8137C171.321 71.6343 171.087 71.515 170.809 71.4559L166.9 70.6249L167.165 69.3786ZM165.621 76.0243C165.731 75.5075 165.961 75.0742 166.311 74.7246C166.664 74.3784 167.11 74.1422 167.651 74.0161C168.194 73.8934 168.812 73.9056 169.504 74.0527C170.196 74.1997 170.763 74.4409 171.206 74.7761C171.648 75.114 171.957 75.5136 172.132 75.9749C172.307 76.4361 172.34 76.9237 172.23 77.4378C172.146 77.8352 172.011 78.1406 171.827 78.354C171.644 78.5708 171.451 78.7272 171.248 78.8234C171.044 78.9224 170.867 78.9952 170.718 79.0419L170.702 79.1169L173.874 79.7911L173.609 81.0374L165.072 79.2229L165.331 78.0058L166.327 78.2176L166.349 78.1133C166.229 78.0094 166.096 77.8679 165.951 77.689C165.806 77.5128 165.694 77.2886 165.615 77.0163C165.537 76.744 165.539 76.4134 165.621 76.0243ZM166.626 76.5253C166.55 76.8838 166.58 77.2068 166.716 77.4943C166.855 77.7851 167.08 78.0305 167.392 78.2304C167.703 78.433 168.084 78.5822 168.534 78.6779C168.978 78.7724 169.381 78.7912 169.742 78.7342C170.102 78.6773 170.402 78.545 170.641 78.3372C170.879 78.1295 171.038 77.8436 171.115 77.4796C171.195 77.1044 171.164 76.7711 171.023 76.4797C170.881 76.1882 170.656 75.9429 170.347 75.7436C170.037 75.5471 169.671 75.4039 169.249 75.3141C168.821 75.2232 168.422 75.2053 168.053 75.2605C167.684 75.3156 167.373 75.447 167.12 75.6546C166.869 75.8655 166.704 76.1558 166.626 76.5253ZM164.012 84.2081L172.549 86.0226L172.275 87.3106L168.566 86.5221L167.661 90.7779L171.371 91.5664L171.096 92.8586L162.559 91.0441L162.834 89.7519L166.556 90.5431L167.461 86.2873L163.739 85.4961L164.012 84.2081ZM161.48 95.4891C161.607 94.8889 161.856 94.3943 162.226 94.0054C162.596 93.6165 163.055 93.3509 163.602 93.2088C164.15 93.0666 164.754 93.0658 165.415 93.2064C166.079 93.3475 166.634 93.5946 167.079 93.9477C167.524 94.3007 167.836 94.7302 168.016 95.236C168.196 95.7419 168.222 96.295 168.095 96.8952C167.967 97.4954 167.718 97.99 167.348 98.3789C166.978 98.7678 166.518 99.0331 165.968 99.1747C165.418 99.3162 164.811 99.3165 164.146 99.1753C163.485 99.0347 162.933 98.7882 162.491 98.4357C162.049 98.0833 161.738 97.6541 161.558 97.1483C161.378 96.6424 161.352 96.0894 161.48 95.4891ZM162.525 95.7157C162.442 96.1047 162.477 96.4489 162.628 96.7483C162.779 97.0476 163.013 97.2948 163.328 97.4897C163.644 97.6874 164.007 97.8299 164.418 97.9174C164.827 98.0042 165.215 98.0214 165.583 97.969C165.954 97.92 166.271 97.7898 166.533 97.5784C166.796 97.3671 166.969 97.0669 167.052 96.6779C167.135 96.286 167.1 95.9388 166.946 95.636C166.792 95.3361 166.556 95.087 166.238 94.8887C165.922 94.6938 165.56 94.5529 165.152 94.4661C164.741 94.3786 164.351 94.3597 163.983 94.4094C163.615 94.4618 163.301 94.5939 163.041 94.8059C162.78 95.0206 162.608 95.3239 162.525 95.7157ZM168.95 102.953L160.414 101.139L160.679 99.8922L169.215 101.707L168.95 102.953ZM159.423 105.185C159.533 104.668 159.763 104.235 160.113 103.886C160.465 103.539 160.912 103.303 161.453 103.177C161.996 103.054 162.614 103.067 163.305 103.214C163.997 103.361 164.565 103.602 165.008 103.937C165.45 104.275 165.758 104.675 165.933 105.136C166.108 105.597 166.141 106.085 166.032 106.599C165.948 106.996 165.813 107.302 165.628 107.515C165.446 107.732 165.253 107.888 165.049 107.984C164.845 108.083 164.668 108.156 164.519 108.203L164.503 108.278L167.675 108.952L167.41 110.198L158.874 108.384L159.132 107.167L160.129 107.379L160.151 107.274C160.031 107.17 159.898 107.029 159.753 106.85C159.608 106.674 159.495 106.45 159.417 106.177C159.338 105.905 159.34 105.574 159.423 105.185ZM160.427 105.686C160.351 106.045 160.381 106.368 160.518 106.655C160.656 106.946 160.881 107.192 161.193 107.391C161.505 107.594 161.885 107.743 162.335 107.839C162.78 107.933 163.183 107.952 163.543 107.895C163.904 107.838 164.204 107.706 164.442 107.498C164.681 107.29 164.839 107.005 164.917 106.641C164.996 106.265 164.965 105.932 164.824 105.641C164.683 105.349 164.458 105.104 164.148 104.905C163.839 104.708 163.473 104.565 163.05 104.475C162.622 104.384 162.224 104.366 161.855 104.421C161.486 104.477 161.175 104.608 160.922 104.816C160.671 105.027 160.506 105.317 160.427 105.686ZM157.78 112.895C157.914 112.264 158.164 111.749 158.531 111.351C158.899 110.956 159.356 110.687 159.9 110.544C160.447 110.405 161.052 110.406 161.716 110.547C162.372 110.686 162.924 110.931 163.372 111.282C163.82 111.636 164.137 112.063 164.324 112.565C164.51 113.069 164.54 113.619 164.414 114.213C164.337 114.574 164.203 114.912 164.011 115.225C163.819 115.539 163.567 115.804 163.254 116.019C162.941 116.234 162.564 116.376 162.123 116.445C161.684 116.514 161.174 116.487 160.593 116.364L160.151 116.27L161.233 111.18L162.167 111.379L161.345 115.247C161.673 115.317 161.977 115.312 162.258 115.232C162.542 115.153 162.784 115.008 162.982 114.798C163.18 114.59 163.314 114.325 163.382 114.003C163.457 113.653 163.435 113.329 163.319 113.031C163.204 112.736 163.024 112.489 162.779 112.289C162.537 112.092 162.255 111.96 161.936 111.892L161.206 111.737C160.778 111.646 160.398 111.643 160.066 111.73C159.734 111.819 159.459 111.982 159.243 112.221C159.03 112.46 158.884 112.762 158.807 113.126C158.757 113.362 158.744 113.585 158.77 113.793C158.798 114.003 158.865 114.193 158.971 114.363C159.077 114.534 159.222 114.678 159.406 114.796L158.943 115.93C158.615 115.762 158.347 115.528 158.138 115.227C157.931 114.931 157.794 114.584 157.728 114.186C157.663 113.792 157.681 113.362 157.78 112.895ZM157.031 117.052L163.434 118.413L163.178 119.617L162.161 119.401L162.146 119.468C162.466 119.658 162.693 119.921 162.828 120.257C162.965 120.597 162.994 120.955 162.914 121.33C162.897 121.408 162.875 121.499 162.847 121.603C162.818 121.711 162.794 121.794 162.772 121.853L161.58 121.6C161.605 121.553 161.639 121.467 161.683 121.343C161.729 121.219 161.766 121.093 161.793 120.965C161.856 120.671 161.849 120.395 161.773 120.138C161.699 119.884 161.567 119.667 161.376 119.487C161.187 119.308 160.954 119.188 160.676 119.129L156.766 118.298L157.031 117.052Z" fill="white"/>
<path d="M157.591 57.1342L157.182 59.06L148.104 57.1303C147.282 56.9558 146.615 56.6439 146.1 56.1947C145.585 55.7498 145.235 55.2027 145.051 54.5536C144.87 53.9053 144.863 53.1894 145.03 52.4058C145.183 51.6847 145.452 51.0644 145.837 50.545C146.221 50.0298 146.699 49.6586 147.27 49.4315C147.844 49.2094 148.492 49.175 149.213 49.3283L148.805 51.2477C148.451 51.1724 148.127 51.1886 147.834 51.2962C147.54 51.408 147.29 51.5922 147.083 51.8488C146.879 52.1105 146.737 52.4289 146.658 52.804C146.571 53.2125 146.583 53.5766 146.693 53.8964C146.807 54.2212 147.017 54.4945 147.323 54.7163C147.628 54.9382 148.025 55.1009 148.513 55.2046L157.591 57.1342ZM142.758 63.0042C142.949 62.1039 143.322 61.362 143.878 60.7787C144.433 60.1953 145.121 59.797 145.942 59.5837C146.763 59.3704 147.669 59.3692 148.661 59.5801C149.657 59.7919 150.489 60.1625 151.156 60.6921C151.824 61.2216 152.292 61.8658 152.562 62.6246C152.832 63.3834 152.872 64.213 152.68 65.1133C152.489 66.0137 152.115 66.7555 151.56 67.3389C151.005 67.9223 150.315 68.3202 149.49 68.5325C148.665 68.7449 147.754 68.7452 146.758 68.5335C145.766 68.3226 144.938 67.9529 144.275 67.4242C143.612 66.8955 143.146 66.2518 142.876 65.493C142.606 64.7342 142.566 63.9046 142.758 63.0042ZM144.326 63.3441C144.202 63.9276 144.253 64.4439 144.48 64.893C144.707 65.342 145.057 65.7127 145.531 66.0051C146.004 66.3016 146.549 66.5155 147.166 66.6466C147.778 66.7768 148.361 66.8027 148.914 66.7241C149.469 66.6505 149.944 66.4553 150.338 66.1382C150.733 65.8212 150.992 65.3709 151.116 64.7873C151.241 64.1996 151.188 63.6787 150.958 63.2246C150.727 62.7747 150.373 62.401 149.896 62.1036C149.422 61.8112 148.879 61.5999 148.266 61.4696C147.649 61.3385 147.065 61.3102 146.513 61.3846C145.961 61.4632 145.489 61.6614 145.099 61.9794C144.708 62.3014 144.451 62.7564 144.326 63.3441ZM146.861 72.6904L141.159 71.4783L141.556 69.6089L154.361 72.3306L153.969 74.1751L149.205 73.1624L149.18 73.2812C149.649 73.6161 149.986 74.0473 150.192 74.5746C150.398 75.102 150.422 75.7387 150.263 76.4848C150.123 77.1434 149.865 77.6898 149.49 78.1241C149.113 78.5625 148.628 78.8601 148.032 79.0167C147.44 79.1784 146.744 79.1742 145.944 79.0041L139.835 77.7057L140.233 75.8362L146.116 77.0868C146.821 77.2365 147.405 77.1713 147.87 76.891C148.339 76.6117 148.642 76.149 148.779 75.5029C148.873 75.061 148.864 74.6451 148.75 74.2551C148.636 73.8693 148.419 73.5378 148.099 73.2606C147.782 72.9885 147.37 72.7984 146.861 72.6904ZM144.61 83.2819L138.908 82.0698L139.305 80.2004L148.909 82.2417L148.527 84.0361L146.964 83.7039L146.939 83.8227C147.401 84.1517 147.735 84.5845 147.944 85.121C148.151 85.6618 148.178 86.2927 148.025 87.0138C147.886 87.6682 147.627 88.2121 147.247 88.6455C146.871 89.0798 146.386 89.3752 145.791 89.5319C145.195 89.6885 144.502 89.6827 143.71 89.5143L137.601 88.2159L137.999 86.3464L143.882 87.597C144.578 87.745 145.161 87.6793 145.63 87.3999C146.103 87.1215 146.407 86.6654 146.541 86.0319C146.633 85.5984 146.622 85.1929 146.506 84.8154C146.389 84.442 146.17 84.1189 145.849 83.8459C145.532 83.578 145.118 83.3899 144.61 83.2819ZM135.165 99.678L136.046 95.5327L148.851 98.2545L147.942 102.531C147.675 103.786 147.19 104.809 146.486 105.6C145.786 106.392 144.908 106.927 143.851 107.203C142.798 107.485 141.607 107.484 140.277 107.201C138.943 106.918 137.849 106.43 136.994 105.739C136.138 105.052 135.549 104.195 135.227 103.168C134.909 102.142 134.889 100.979 135.165 99.678ZM137.324 97.8235L136.876 99.9306C136.668 100.906 136.679 101.756 136.909 102.48C137.143 103.205 137.575 103.802 138.207 104.272C138.844 104.742 139.668 105.085 140.681 105.301C141.686 105.514 142.572 105.535 143.341 105.363C144.108 105.195 144.74 104.835 145.237 104.282C145.733 103.73 146.081 102.987 146.279 102.053L146.752 99.8276L137.324 97.8235ZM132.323 112.093C132.515 111.193 132.888 110.451 133.443 109.868C133.999 109.284 134.687 108.886 135.508 108.673C136.328 108.459 137.235 108.458 138.227 108.669C139.223 108.881 140.055 109.251 140.722 109.781C141.389 110.311 141.858 110.955 142.128 111.713C142.398 112.472 142.437 113.302 142.246 114.202C142.055 115.103 141.681 115.844 141.126 116.428C140.571 117.011 139.881 117.409 139.056 117.621C138.231 117.834 137.32 117.834 136.324 117.622C135.332 117.411 134.504 117.042 133.841 116.513C133.178 115.984 132.711 115.341 132.441 114.582C132.171 113.823 132.132 112.993 132.323 112.093ZM133.891 112.433C133.767 113.016 133.819 113.533 134.046 113.982C134.273 114.431 134.623 114.802 135.097 115.094C135.57 115.391 136.115 115.604 136.731 115.735C137.344 115.866 137.927 115.892 138.479 115.813C139.035 115.739 139.51 115.544 139.904 115.227C140.298 114.91 140.558 114.46 140.682 113.876C140.806 113.288 140.754 112.768 140.524 112.313C140.293 111.864 139.938 111.49 139.461 111.192C138.988 110.9 138.445 110.689 137.832 110.559C137.215 110.427 136.631 110.399 136.079 110.473C135.526 110.552 135.055 110.75 134.665 111.068C134.274 111.39 134.016 111.845 133.891 112.433ZM130.049 122.796C130.25 121.849 130.625 121.077 131.175 120.48C131.728 119.887 132.412 119.484 133.229 119.27C134.049 119.061 134.957 119.062 135.953 119.274C136.937 119.483 137.765 119.85 138.437 120.377C139.109 120.907 139.584 121.549 139.865 122.301C140.144 123.057 140.189 123.881 139.999 124.773C139.884 125.315 139.683 125.821 139.395 126.292C139.108 126.762 138.73 127.159 138.26 127.482C137.791 127.805 137.225 128.018 136.562 128.121C135.904 128.225 135.14 128.184 134.268 127.999L133.606 127.858L135.228 120.224L136.629 120.522L135.396 126.324C135.887 126.428 136.344 126.421 136.766 126.302C137.192 126.183 137.554 125.966 137.852 125.65C138.149 125.339 138.349 124.941 138.452 124.458C138.564 123.932 138.532 123.446 138.357 123C138.185 122.558 137.915 122.187 137.548 121.887C137.184 121.592 136.762 121.393 136.282 121.291L135.188 121.058C134.546 120.922 133.976 120.919 133.478 121.048C132.979 121.181 132.568 121.427 132.243 121.785C131.923 122.144 131.705 122.597 131.589 123.143C131.514 123.497 131.495 123.831 131.533 124.144C131.575 124.458 131.676 124.743 131.835 124.999C131.994 125.255 132.212 125.471 132.488 125.647L131.793 127.349C131.302 127.096 130.899 126.745 130.586 126.295C130.275 125.85 130.07 125.329 129.97 124.733C129.874 124.142 129.9 123.496 130.049 122.796Z" fill="white"/>
<path opacity="0.8" d="M143.369 181.324L151.906 183.138L150.768 188.49L149.659 188.255L150.523 184.19L147.922 183.638L147.118 187.422L146.013 187.188L146.818 183.403L144.204 182.847L143.33 186.961L142.221 186.726L143.369 181.324ZM148.08 190.641L145.287 191.524L147.477 193.479L147.187 194.842L144.411 192.165L140.781 193.498L141.071 192.135L143.77 191.201L141.683 189.255L141.974 187.888L144.752 190.56L148.371 189.274L148.08 190.641ZM138.112 194.251L146.915 196.122L146.657 197.339L145.619 197.118L145.597 197.223C145.715 197.323 145.847 197.46 145.993 197.634C146.139 197.807 146.252 198.028 146.331 198.298C146.413 198.568 146.412 198.902 146.327 199.299C146.217 199.816 145.989 200.25 145.641 200.6C145.294 200.95 144.85 201.188 144.309 201.314C143.767 201.443 143.151 201.434 142.459 201.287C141.767 201.14 141.198 200.898 140.752 200.563C140.309 200.227 139.998 199.83 139.816 199.37C139.638 198.911 139.604 198.423 139.714 197.907C139.796 197.517 139.929 197.213 140.112 196.994C140.295 196.777 140.489 196.618 140.693 196.516C140.898 196.414 141.076 196.34 141.228 196.294L141.244 196.219L137.847 195.497L138.112 194.251ZM143.455 196.663C143.004 196.567 142.596 196.549 142.229 196.607C141.862 196.666 141.557 196.798 141.313 197.005C141.071 197.212 140.912 197.495 140.836 197.853C140.757 198.226 140.789 198.558 140.933 198.85C141.08 199.142 141.311 199.389 141.626 199.589C141.94 199.793 142.311 199.94 142.739 200.031C143.161 200.121 143.554 200.137 143.917 200.081C144.28 200.027 144.586 199.895 144.834 199.683C145.082 199.474 145.245 199.183 145.325 198.807C145.402 198.446 145.374 198.121 145.241 197.831C145.107 197.544 144.887 197.301 144.581 197.103C144.275 196.904 143.899 196.757 143.455 196.663ZM138.973 202.005L145.376 203.366L145.111 204.613L138.708 203.252L138.973 202.005ZM146.23 204.206C146.276 203.989 146.388 203.818 146.565 203.693C146.745 203.572 146.936 203.533 147.139 203.576C147.345 203.619 147.503 203.733 147.615 203.917C147.73 204.103 147.764 204.305 147.718 204.522C147.672 204.739 147.559 204.908 147.379 205.029C147.201 205.154 147.01 205.195 146.804 205.151C146.601 205.108 146.443 204.993 146.329 204.806C146.217 204.623 146.184 204.422 146.23 204.206ZM138.352 204.928L144.754 206.289L144.498 207.494L143.481 207.278L143.467 207.344C143.787 207.534 144.014 207.798 144.149 208.134C144.286 208.474 144.314 208.831 144.234 209.207C144.218 209.284 144.196 209.376 144.168 209.48C144.139 209.587 144.114 209.67 144.093 209.73L142.901 209.476C142.925 209.429 142.959 209.344 143.003 209.219C143.05 209.096 143.087 208.97 143.114 208.842C143.176 208.548 143.17 208.272 143.094 208.014C143.02 207.761 142.887 207.544 142.696 207.364C142.508 207.184 142.275 207.065 141.997 207.006L138.087 206.175L138.352 204.928ZM134.784 209.906C134.824 209.719 134.875 209.553 134.938 209.407C134.999 209.26 135.053 209.152 135.103 209.085L136.06 209.602C135.951 209.817 135.881 210.014 135.852 210.193C135.822 210.373 135.856 210.544 135.952 210.707C136.047 210.872 136.225 211.038 136.486 211.204L136.879 211.449L143.862 210.485L143.579 211.818L138.266 212.384L138.252 212.451L142.875 215.128L142.591 216.466L135.895 212.285C135.588 212.092 135.339 211.876 135.148 211.638C134.955 211.4 134.828 211.138 134.766 210.851C134.705 210.565 134.711 210.25 134.784 209.906ZM134.671 222.246L135.258 219.483L143.795 221.297L143.189 224.148C143.011 224.985 142.687 225.667 142.218 226.194C141.751 226.723 141.166 227.079 140.462 227.263C139.76 227.451 138.965 227.45 138.079 227.262C137.19 227.073 136.46 226.748 135.89 226.287C135.319 225.829 134.927 225.258 134.712 224.573C134.5 223.889 134.486 223.113 134.671 222.246ZM136.11 221.01L135.811 222.415C135.673 223.065 135.68 223.632 135.833 224.114C135.989 224.597 136.278 224.996 136.699 225.309C137.123 225.623 137.673 225.851 138.348 225.995C139.018 226.137 139.609 226.151 140.121 226.036C140.633 225.924 141.054 225.684 141.385 225.316C141.716 224.948 141.948 224.453 142.08 223.83L142.396 222.346L136.11 221.01ZM132.941 229.687C133.027 229.281 133.18 228.93 133.4 228.634C133.623 228.339 133.899 228.126 134.229 227.996C134.558 227.868 134.932 227.849 135.352 227.938C135.713 228.015 135.996 228.148 136.199 228.336C136.403 228.525 136.548 228.752 136.634 229.017C136.72 229.282 136.767 229.568 136.774 229.874C136.782 230.181 136.771 230.489 136.743 230.8C136.706 231.193 136.676 231.512 136.653 231.757C136.633 232.002 136.644 232.186 136.688 232.309C136.732 232.431 136.829 232.508 136.979 232.54L137.008 232.547C137.372 232.624 137.676 232.581 137.92 232.418C138.163 232.258 138.327 231.976 138.413 231.573C138.502 231.153 138.479 230.803 138.344 230.522C138.212 230.244 138.043 230.035 137.837 229.895L138.353 228.781C138.712 229.002 138.983 229.272 139.166 229.59C139.35 229.911 139.459 230.258 139.493 230.631C139.53 231.005 139.507 231.385 139.425 231.771C139.371 232.026 139.283 232.291 139.161 232.564C139.041 232.841 138.875 233.087 138.664 233.304C138.451 233.523 138.181 233.682 137.852 233.78C137.526 233.879 137.13 233.879 136.663 233.78L132.411 232.877L132.67 231.659L133.545 231.845L133.556 231.795C133.412 231.681 133.279 231.526 133.158 231.332C133.036 231.138 132.951 230.903 132.902 230.628C132.853 230.354 132.866 230.04 132.941 229.687ZM133.884 230.17C133.811 230.515 133.816 230.824 133.9 231.098C133.984 231.374 134.122 231.599 134.314 231.774C134.509 231.951 134.733 232.067 134.985 232.121L135.811 232.296C135.776 232.243 135.752 232.148 135.741 232.011C135.731 231.879 135.729 231.729 135.736 231.562C135.745 231.395 135.755 231.233 135.765 231.076C135.778 230.919 135.789 230.787 135.797 230.682C135.818 230.433 135.813 230.201 135.783 229.986C135.753 229.773 135.683 229.593 135.572 229.444C135.463 229.299 135.298 229.203 135.075 229.156C134.767 229.09 134.509 229.155 134.303 229.349C134.098 229.544 133.959 229.818 133.884 230.17ZM137.826 238.886L136.825 238.673L137.569 235.176L138.569 235.389L137.826 238.886ZM139.903 236.653L139.639 237.899L133.582 236.612C133.34 236.56 133.151 236.558 133.013 236.604C132.878 236.651 132.776 236.727 132.708 236.831C132.641 236.939 132.594 237.061 132.565 237.197C132.543 237.297 132.532 237.386 132.53 237.464C132.528 237.542 132.526 237.603 132.526 237.646L131.448 237.652C131.436 237.574 131.43 237.466 131.431 237.326C131.428 237.186 131.447 237.016 131.487 236.815C131.551 236.486 131.674 236.193 131.857 235.936C132.039 235.678 132.277 235.489 132.57 235.368C132.863 235.248 133.202 235.228 133.589 235.31L139.903 236.653ZM130.429 241.567C130.563 240.936 130.813 240.422 131.18 240.023C131.548 239.628 132.005 239.359 132.549 239.216C133.096 239.077 133.701 239.078 134.365 239.219C135.021 239.358 135.573 239.603 136.021 239.954C136.469 240.308 136.786 240.736 136.973 241.237C137.159 241.741 137.189 242.291 137.063 242.885C136.986 243.247 136.852 243.584 136.66 243.898C136.469 244.211 136.216 244.476 135.903 244.691C135.59 244.906 135.213 245.048 134.772 245.117C134.333 245.186 133.823 245.159 133.242 245.036L132.8 244.942L133.882 239.853L134.816 240.051L133.994 243.919C134.322 243.989 134.626 243.984 134.907 243.904C135.191 243.825 135.433 243.68 135.631 243.47C135.829 243.262 135.963 242.997 136.031 242.675C136.106 242.325 136.085 242.001 135.968 241.703C135.853 241.409 135.673 241.161 135.428 240.961C135.186 240.764 134.904 240.632 134.585 240.564L133.855 240.409C133.428 240.318 133.048 240.316 132.716 240.402C132.383 240.491 132.108 240.655 131.892 240.893C131.679 241.133 131.533 241.434 131.456 241.798C131.406 242.034 131.393 242.257 131.419 242.466C131.447 242.675 131.514 242.865 131.62 243.036C131.726 243.206 131.871 243.35 132.055 243.468L131.592 244.602C131.265 244.434 130.996 244.2 130.787 243.9C130.58 243.603 130.443 243.256 130.377 242.858C130.312 242.464 130.33 242.034 130.429 241.567Z" fill="white"/>
<path d="M117.692 180.832C117.906 179.845 118.346 179.057 119.012 178.466C119.678 177.876 120.544 177.5 121.611 177.339C122.677 177.178 123.907 177.246 125.299 177.542C126.687 177.837 127.833 178.274 128.738 178.854C129.642 179.439 130.278 180.136 130.646 180.946C131.013 181.76 131.093 182.657 130.885 183.637C130.676 184.616 130.237 185.401 129.567 185.99C128.902 186.581 128.038 186.957 126.975 187.119C125.916 187.286 124.692 187.222 123.304 186.926C121.908 186.63 120.755 186.191 119.846 185.61C118.941 185.03 118.303 184.334 117.93 183.523C117.562 182.713 117.483 181.816 117.692 180.832ZM119.361 181.187C119.177 182.054 119.456 182.822 120.199 183.489C120.94 184.161 122.111 184.667 123.712 185.007C124.775 185.233 125.697 185.311 126.479 185.242C127.263 185.178 127.89 184.978 128.358 184.642C128.829 184.311 129.125 183.859 129.246 183.288C129.43 182.426 129.149 181.658 128.403 180.985C127.657 180.313 126.486 179.805 124.891 179.461C123.824 179.234 122.898 179.153 122.113 179.217C121.332 179.286 120.708 179.487 120.24 179.819C119.778 180.152 119.485 180.608 119.361 181.187ZM128.511 194.802C128.386 195.372 128.162 195.913 127.84 196.423C127.518 196.934 127.078 197.364 126.521 197.711C125.962 198.063 125.261 198.289 124.416 198.388C123.575 198.492 122.57 198.423 121.402 198.179C120.281 197.94 119.307 197.616 118.479 197.205C117.656 196.794 116.989 196.315 116.478 195.766C115.967 195.222 115.618 194.618 115.432 193.956C115.246 193.293 115.232 192.589 115.391 191.843C115.553 191.08 115.847 190.435 116.273 189.907C116.699 189.379 117.216 188.985 117.824 188.727C118.437 188.469 119.099 188.368 119.81 188.424L119.405 190.331C118.828 190.339 118.328 190.498 117.904 190.809C117.484 191.125 117.209 191.589 117.079 192.202C116.88 193.14 117.133 193.958 117.838 194.657C118.548 195.357 119.638 195.865 121.108 196.182L121.129 196.082C120.817 195.789 120.566 195.452 120.377 195.072C120.187 194.697 120.063 194.293 120.006 193.863C119.95 193.433 119.97 192.991 120.066 192.536C120.223 191.798 120.547 191.166 121.038 190.639C121.529 190.111 122.13 189.736 122.84 189.512C123.549 189.288 124.311 189.263 125.123 189.435C125.932 189.607 126.627 189.947 127.207 190.453C127.787 190.964 128.198 191.592 128.441 192.336C128.687 193.086 128.71 193.907 128.511 194.802ZM126.884 194.463C126.988 193.975 126.961 193.509 126.802 193.066C126.647 192.628 126.389 192.253 126.028 191.941C125.672 191.63 125.246 191.422 124.75 191.316C124.254 191.211 123.78 191.224 123.33 191.354C122.883 191.49 122.5 191.723 122.182 192.051C121.867 192.385 121.657 192.798 121.553 193.29C121.475 193.657 121.473 194.014 121.547 194.361C121.622 194.708 121.759 195.026 121.958 195.317C122.162 195.609 122.41 195.855 122.703 196.057C122.996 196.259 123.319 196.397 123.673 196.472C124.144 196.572 124.606 196.553 125.058 196.414C125.509 196.279 125.899 196.044 126.228 195.708C126.56 195.374 126.779 194.959 126.884 194.463ZM126.42 206.729L111.967 199.344L112.322 197.675L126.775 205.06L126.42 206.729ZM112.683 205.443L114.084 205.741L117.652 211.028C118.041 211.594 118.387 212.067 118.69 212.445C118.997 212.828 119.301 213.13 119.602 213.351C119.904 213.572 120.242 213.722 120.617 213.802C121.042 213.892 121.43 213.87 121.781 213.736C122.137 213.602 122.434 213.38 122.675 213.069C122.919 212.76 123.087 212.388 123.179 211.955C123.277 211.496 123.268 211.076 123.153 210.694C123.038 210.313 122.829 209.994 122.527 209.738C122.224 209.482 121.843 209.305 121.385 209.207L121.777 207.363C122.556 207.529 123.2 207.853 123.707 208.335C124.214 208.818 124.562 209.406 124.75 210.099C124.942 210.794 124.954 211.539 124.785 212.335C124.614 213.139 124.302 213.814 123.851 214.358C123.403 214.908 122.868 215.297 122.244 215.526C121.624 215.756 120.971 215.798 120.283 215.652C119.808 215.551 119.362 215.362 118.946 215.087C118.529 214.815 118.087 214.401 117.622 213.845C117.16 213.289 116.617 212.537 115.99 211.59L113.868 208.479L113.774 208.459L112.549 214.224L110.892 213.871L112.683 205.443ZM109.293 220.53C109.484 219.634 109.806 218.875 110.261 218.253C110.715 217.635 111.254 217.19 111.878 216.917C112.502 216.645 113.16 216.584 113.851 216.735C114.394 216.846 114.868 217.063 115.275 217.384C115.685 217.711 116 218.103 116.221 218.559C116.446 219.017 116.549 219.496 116.53 219.997L116.605 220.013C116.894 219.408 117.345 218.97 117.956 218.699C118.566 218.428 119.215 218.368 119.902 218.518C120.558 218.653 121.104 218.95 121.543 219.409C121.984 219.873 122.287 220.445 122.452 221.125C122.617 221.805 122.616 222.539 122.448 223.327C122.283 224.106 121.985 224.77 121.554 225.319C121.127 225.873 120.617 226.272 120.025 226.517C119.437 226.762 118.818 226.818 118.167 226.684C117.48 226.533 116.913 226.208 116.466 225.708C116.019 225.208 115.784 224.631 115.762 223.977L115.687 223.961C115.502 224.423 115.214 224.812 114.824 225.13C114.438 225.453 113.991 225.681 113.483 225.813C112.979 225.949 112.456 225.962 111.913 225.851C111.222 225.7 110.647 225.373 110.187 224.87C109.728 224.367 109.417 223.739 109.255 222.986C109.092 222.237 109.105 221.418 109.293 220.53ZM110.875 220.867C110.763 221.396 110.753 221.873 110.845 222.298C110.942 222.724 111.126 223.077 111.398 223.357C111.674 223.637 112.026 223.825 112.454 223.921C112.901 224.011 113.32 223.978 113.71 223.822C114.1 223.669 114.434 223.42 114.712 223.074C114.991 222.728 115.183 222.305 115.289 221.805C115.396 221.301 115.394 220.832 115.281 220.398C115.168 219.965 114.965 219.599 114.671 219.301C114.377 219.004 114.007 218.81 113.56 218.719C113.132 218.623 112.735 218.646 112.369 218.786C112.007 218.931 111.695 219.181 111.433 219.534C111.174 219.889 110.988 220.333 110.875 220.867ZM116.834 222.133C116.743 222.558 116.748 222.954 116.849 223.319C116.95 223.685 117.133 223.994 117.397 224.246C117.661 224.503 117.996 224.676 118.404 224.767C118.805 224.848 119.176 224.827 119.516 224.703C119.855 224.583 120.141 224.376 120.373 224.081C120.61 223.788 120.774 223.424 120.866 222.99C120.96 222.549 120.959 222.143 120.863 221.774C120.771 221.41 120.594 221.105 120.333 220.858C120.072 220.611 119.741 220.447 119.34 220.366C118.932 220.275 118.556 220.291 118.212 220.413C117.868 220.536 117.575 220.744 117.334 221.037C117.093 221.334 116.926 221.7 116.834 222.133Z" fill="white"/>
<g clip-path="url(#clip1_9840_4955)">
<g filter="url(#filter0_b_9840_4955)">
<ellipse cx="84.3759" cy="417.377" rx="18.6567" ry="18.6567" transform="rotate(102 84.3759 417.377)" fill="#FAFAFA" fill-opacity="0.3"/>
</g>
<g filter="url(#filter1_b_9840_4955)">
<path d="M75.6864 458.255C65.6078 456.112 59.1741 446.205 61.3164 436.127C63.4587 426.048 73.3657 419.614 83.4443 421.757C93.523 423.899 99.9567 433.806 97.8144 443.885C95.6721 453.963 85.7651 460.397 75.6864 458.255Z" fill="#FAFAFA" fill-opacity="0.7"/>
</g>
<g filter="url(#filter2_b_9840_4955)">
<path d="M96.2897 431.735C93.8452 426.8 89.2494 422.991 83.4445 421.757C77.6396 420.523 71.8916 422.134 67.6514 425.648C70.0958 430.583 74.6916 434.392 80.4965 435.626C86.3014 436.86 92.0494 435.249 96.2897 431.735Z" fill="#FAFAFA" fill-opacity="0.6"/>
</g>
</g>
<rect x="300" y="77.7236" width="500" height="300" rx="15" transform="rotate(90 300 77.7236)" fill="#00183F"/>
<path d="M232.616 132.192C232.616 130.08 233.096 128.234 234.056 126.656C235.016 125.077 236.349 123.85 238.056 122.976C239.784 122.101 241.789 121.664 244.072 121.664C246.376 121.664 248.403 122.112 250.152 123.008C251.923 123.925 253.299 125.216 254.28 126.88C255.283 128.565 255.784 130.56 255.784 132.864C255.784 135.488 255.155 137.664 253.896 139.392C252.637 141.12 250.899 142.24 248.68 142.752V138.176C249.725 137.834 250.536 137.216 251.112 136.32C251.709 135.424 252.008 134.272 252.008 132.864C252.008 130.624 251.293 128.896 249.864 127.68C248.456 126.464 246.515 125.856 244.04 125.856C241.565 125.856 239.645 126.453 238.28 127.648C236.936 128.864 236.264 130.506 236.264 132.576C236.264 134.602 236.808 136.128 237.896 137.152C239.005 138.197 240.456 138.826 242.248 139.04V133.376H245.32V143.168H233V139.392L235.944 139.072C234.877 138.346 234.056 137.44 233.48 136.352C232.904 135.264 232.616 133.877 232.616 132.192ZM251.336 148.302C251.336 147.555 251.56 146.936 252.008 146.446C252.456 145.976 253.021 145.742 253.704 145.742C254.387 145.742 254.941 145.976 255.368 146.446C255.816 146.936 256.04 147.555 256.04 148.302C256.04 149.048 255.816 149.656 255.368 150.126C254.941 150.616 254.387 150.862 253.704 150.862C253.021 150.862 252.456 150.616 252.008 150.126C251.56 149.656 251.336 149.048 251.336 148.302ZM233 146.254H248.872V150.35H233V146.254ZM233 153.665H248.872V157.281L246.184 157.601C247.123 158.092 247.869 158.796 248.424 159.713C248.979 160.652 249.256 161.75 249.256 163.009C249.256 164.972 248.637 166.497 247.4 167.585C246.163 168.673 244.349 169.217 241.96 169.217H233V165.121H241.576C242.941 165.121 243.987 164.844 244.712 164.289C245.437 163.734 245.8 162.87 245.8 161.697C245.8 160.545 245.395 159.596 244.584 158.849C243.773 158.124 242.643 157.761 241.192 157.761H233V153.665ZM233 172.174H256.04V176.27H242.44L248.872 181.902V186.766L241.64 180.27L233 187.822V182.702L240.968 176.27H233V172.174ZM232.616 195.705C232.616 194.169 232.968 192.782 233.672 191.545C234.376 190.329 235.347 189.358 236.584 188.633C237.843 187.929 239.293 187.577 240.936 187.577C242.579 187.577 244.019 187.939 245.256 188.665C246.515 189.39 247.496 190.361 248.2 191.577C248.904 192.814 249.256 194.201 249.256 195.737C249.256 197.251 248.904 198.617 248.2 199.833C247.496 201.07 246.515 202.041 245.256 202.745C244.019 203.47 242.579 203.833 240.936 203.833C239.293 203.833 237.843 203.47 236.584 202.745C235.347 202.041 234.376 201.07 233.672 199.833C232.968 198.595 232.616 197.219 232.616 195.705ZM236.168 195.705C236.168 196.771 236.563 197.699 237.352 198.489C238.163 199.278 239.357 199.673 240.936 199.673C242.515 199.673 243.699 199.278 244.488 198.489C245.299 197.699 245.704 196.782 245.704 195.737C245.704 194.649 245.299 193.71 244.488 192.921C243.699 192.153 242.515 191.769 240.936 191.769C239.357 191.769 238.163 192.153 237.352 192.921C236.563 193.71 236.168 194.638 236.168 195.705ZM232.776 208.295C232.776 207.548 233.011 206.93 233.48 206.439C233.949 205.97 234.515 205.735 235.176 205.735C235.859 205.735 236.435 205.97 236.904 206.439C237.373 206.93 237.608 207.548 237.608 208.295C237.608 209.042 237.373 209.65 236.904 210.119C236.435 210.61 235.859 210.855 235.176 210.855C234.515 210.855 233.949 210.61 233.48 210.119C233.011 209.65 232.776 209.042 232.776 208.295Z" fill="white"/>
<path d="M247.7 507.524C247.2 507.924 246.6 508.224 246 508.424C245.4 508.624 244.7 508.724 244 508.724C243.3 508.724 242.6 508.624 242 508.424C241.4 508.224 240.8 507.924 240.3 507.524C239.6 507.024 238.6 507.124 238.1 507.824C237.6 508.524 237.7 509.524 238.4 510.024C239.2 510.624 240 511.024 241 511.424C242 511.824 243 511.924 244 511.924C245 511.924 246 511.724 247 511.424C247.9 511.124 248.8 510.624 249.6 510.024C250.3 509.524 250.4 508.524 249.9 507.824C249.4 507.124 248.4 507.024 247.7 507.524Z" fill="#FAFAFA"/>
<path d="M250.6 513.024C248.7 514.224 246.4 514.924 244 514.924C241.6 514.924 239.3 514.224 237.4 513.024C236.7 512.524 235.7 512.824 235.2 513.524C234.7 514.324 235 515.224 235.7 515.724C238.1 517.224 240.9 518.124 244 518.124C247 518.124 249.9 517.224 252.3 515.724C253 515.224 253.3 514.224 252.8 513.524C252.3 512.824 251.4 512.524 250.6 513.024Z" fill="#FAFAFA"/>
<path d="M253.6 518.824C250.8 520.524 247.5 521.424 244 521.424C240.5 521.424 237.2 520.424 234.4 518.824C233.6 518.424 232.7 518.624 232.2 519.424C231.8 520.224 232 521.124 232.8 521.624C236.1 523.624 239.9 524.724 244 524.724C248.1 524.724 251.9 523.624 255.2 521.624C256 521.224 256.2 520.224 255.8 519.424C255.3 518.624 254.4 518.424 253.6 518.824Z" fill="#FAFAFA"/>
<path d="M256.6 524.624C252.9 526.724 248.6 528.024 244 528.024C239.4 528.024 235.1 526.824 231.4 524.624C230.6 524.224 229.7 524.424 229.2 525.224C228.8 526.024 229 526.924 229.8 527.424C234 529.824 238.8 531.224 244 531.224C249.2 531.224 254 529.824 258.2 527.424C259 527.024 259.2 526.024 258.8 525.224C258.4 524.424 257.4 524.224 256.6 524.624Z" fill="#FAFAFA"/>
<path d="M125.085 125.572H146V117.953C146 117.151 145.568 116.41 144.458 116.41C143.347 116.41 142.915 117.151 142.915 117.953V122.487H125.085V117.953C125.085 117.151 124.653 116.41 123.542 116.41C122.432 116.41 122 117.151 122 117.953V130.107C122 130.909 122.432 131.649 123.542 131.649H131.316C132.211 131.649 132.859 131.248 132.859 130.107C132.859 128.965 132.211 128.564 131.316 128.564H125.085V125.572Z" fill="#FAFAFA"/>
<path d="M132.458 141.697V150.397C132.458 151.415 132.612 152.124 133.321 152.895C134.123 153.759 134.956 153.852 136.067 153.852H142.391C143.501 153.852 144.334 153.759 145.136 152.895C145.846 152.124 146 151.415 146 150.397V140.155C146 139.353 145.568 138.613 144.458 138.613C143.347 138.613 142.915 139.353 142.915 140.155V150.767H135.542V142.098C135.542 139.785 134.37 138.613 132.057 138.613H122V152.309C122 153.111 122.432 153.852 123.542 153.852C124.653 153.852 125.085 153.111 125.085 152.309V141.697H132.458Z" fill="#FAFAFA"/>
<path d="M142.915 172.969H137.794C136.067 172.969 135.542 172.29 135.542 171.427V165.38C135.542 164.578 135.111 163.838 134 163.838C132.889 163.838 132.458 164.578 132.458 165.38V171.427C132.458 172.29 131.933 172.969 130.206 172.969H125.085V162.357C125.085 161.555 124.653 160.815 123.542 160.815C122.432 160.815 122 161.555 122 162.357V172.969C122 174.727 123.326 176.054 125.085 176.054H131.008C132.242 176.054 133.136 175.807 134 174.851C134.864 175.807 135.758 176.054 136.992 176.054H142.915C144.674 176.054 146 174.727 146 172.969V162.357C146 161.555 145.568 160.815 144.458 160.815C143.347 160.815 142.915 161.555 142.915 162.357V172.969Z" fill="#FAFAFA"/>
<path d="M132.92 187.644H144.458C145.229 187.644 146 187.274 146 186.102C146 184.93 145.229 184.56 144.458 184.56H129.835V193.629H123.542C122.555 193.629 122 194.061 122 195.171C122 196.282 122.555 196.714 123.542 196.714H129.835C129.835 197.516 130.267 198.256 131.378 198.256C132.488 198.256 132.92 197.516 132.92 196.714H141.835C142.607 196.714 143.378 196.344 143.378 195.171C143.378 193.999 142.607 193.629 141.835 193.629H132.92V187.644Z" fill="#FAFAFA"/>
<path d="M142.915 233.561V241.119C142.915 241.921 143.347 242.661 144.458 242.661C145.568 242.661 146 241.921 146 241.119V230.476H132.458V239.576H125.085V232.45C125.085 231.957 125.517 231.247 125.702 230.815L126.103 229.89C126.257 229.55 126.35 229.273 126.35 228.903C126.35 228.101 125.609 227.422 124.807 227.422C123.728 227.422 123.45 228.347 123.08 229.18L122.555 230.353C122.216 231.124 122 231.586 122 232.389V239.237C122 240.347 122.123 241.149 123.049 241.921C123.82 242.568 124.499 242.661 125.455 242.661H132.057C133.136 242.661 133.877 242.568 134.679 241.705C135.388 240.964 135.542 240.224 135.542 239.237V233.561H142.915Z" fill="#FAFAFA"/>
<path d="M142.915 252.709C142.915 253.604 143.532 254.252 144.458 254.252C145.26 254.252 146 253.604 146 252.802V250.951C146 249.871 145.167 249.624 144.458 249.624H123.943C122.524 249.624 122 250.18 122 251.629L122 262.858C122 264.246 122.494 264.863 123.943 264.863H130.853C132.272 264.863 132.92 264.555 132.92 263.012V252.709H142.915ZM129.835 261.779H125.085L125.085 252.709H129.835V261.779Z" fill="#FAFAFA"/>
<path d="M142.915 283.981H138.658C137.301 283.981 137.332 284.043 136.437 283.025L132.766 278.768C132.087 277.996 131.995 277.965 130.977 277.965H123.542C122.555 277.965 122 278.397 122 279.508C122 280.618 122.555 281.05 123.542 281.05H129.527C130.607 281.05 130.668 281.112 131.378 281.914L135.111 286.233C135.851 287.097 135.974 287.066 137.054 287.066H146V273.369C146 272.382 145.136 271.827 144.458 271.827H142.915C142.237 271.827 141.373 272.382 141.373 273.369C141.373 274.356 142.237 274.911 142.915 274.911V283.981Z" fill="#FAFAFA"/>
<path d="M135.542 300.199H142.915V303.098H135.542V300.199ZM146 298.656C146 297.607 145.26 297.114 144.458 297.114H135.542C135.542 296.158 135.203 295.417 134.679 294.862C134.154 294.307 133.383 294.029 132.427 294.029H125.085C123.203 294.029 122 295.201 122 297.114V306.183C122 308.096 123.203 309.268 125.085 309.268H132.427C133.383 309.268 134.154 308.99 134.679 308.435C135.203 307.88 135.542 307.14 135.542 306.183H144.458C145.26 306.183 146 305.69 146 304.641V298.656ZM125.085 297.114H132.458V306.183H125.085V297.114Z" fill="#FAFAFA"/>
<path d="M125.085 350.588C125.085 349.693 124.468 349.046 123.542 349.046C122.71 349.046 122 349.663 122 350.588V352.13C122 353.056 122.71 353.673 123.542 353.673H144.458C145.26 353.673 146 352.994 146 352.13L146 339.976C146 339.112 145.26 338.434 144.458 338.434H136.56C135.758 338.434 135.018 339.112 135.018 339.976V350.588H125.085ZM138.103 341.519H142.915L142.915 350.588H138.103V341.519Z" fill="#FAFAFA"/>
<path d="M146 363.721C146 362.024 144.612 360.636 142.915 360.636H125.085C123.357 360.636 122 361.963 122 363.721V372.79C122 374.549 123.357 375.875 125.085 375.875H142.915C144.612 375.875 146 374.487 146 372.79V363.721ZM125.085 363.721H142.915V372.79H125.085V363.721Z" fill="#FAFAFA"/>
<path d="M146 385.923C146 384.227 144.612 382.838 142.915 382.838H125.085C123.357 382.838 122 384.165 122 385.923V394.993C122 396.751 123.357 398.078 125.085 398.078H142.915C144.612 398.078 146 396.689 146 394.993V385.923ZM125.085 385.923H142.915V394.993H125.085V385.923Z" fill="#FAFAFA"/>
<path d="M146 408.126C146 406.429 144.612 405.041 142.915 405.041H125.085C123.357 405.041 122 406.367 122 408.126V417.195C122 418.953 123.357 420.28 125.085 420.28H142.915C144.612 420.28 146 418.892 146 417.195V408.126ZM125.085 408.126H142.915V417.195H125.085V408.126Z" fill="#FAFAFA"/>
<path d="M146 452.53C146 450.834 144.612 449.446 142.915 449.446H125.085C123.357 449.446 122 450.772 122 452.53V461.6C122 463.358 123.357 464.685 125.085 464.685H142.915C144.612 464.685 146 463.296 146 461.6V452.53ZM125.085 452.53H142.915V461.6H125.085V452.53Z" fill="#FAFAFA"/>
<path d="M146 474.733C146 473.036 144.612 471.648 142.915 471.648H125.085C123.357 471.648 122 472.974 122 474.733V483.802C122 485.56 123.357 486.887 125.085 486.887H142.915C144.612 486.887 146 485.499 146 483.802V474.733ZM125.085 474.733H142.915V483.802H125.085V474.733Z" fill="#FAFAFA"/>
<path d="M146 496.935C146 495.238 144.612 493.85 142.915 493.85H125.085C123.357 493.85 122 495.177 122 496.935V506.004C122 507.763 123.357 509.089 125.085 509.089H142.915C144.612 509.089 146 507.701 146 506.004V496.935ZM125.085 496.935H142.915V506.004H125.085V496.935Z" fill="#FAFAFA"/>
<path d="M146 519.137C146 517.441 144.612 516.053 142.915 516.053H125.085C123.357 516.053 122 517.379 122 519.137V528.207C122 529.965 123.357 531.292 125.085 531.292H142.915C144.612 531.292 146 529.903 146 528.207V519.137ZM125.085 519.137H142.915V528.207H125.085V519.137Z" fill="#FAFAFA"/>
<path opacity="0.8" d="M77.356 121.006C77.356 120.174 77.536 119.454 77.896 118.846C78.264 118.246 78.772 117.782 79.42 117.454C80.076 117.126 80.832 116.962 81.688 116.962C82.552 116.962 83.308 117.126 83.956 117.454C84.612 117.782 85.124 118.246 85.492 118.846C85.86 119.454 86.044 120.174 86.044 121.006C86.044 121.99 85.804 122.794 85.324 123.418C84.844 124.042 84.172 124.438 83.308 124.606V123.19C83.796 123.078 84.184 122.838 84.472 122.47C84.76 122.102 84.904 121.61 84.904 120.994C84.904 120.154 84.616 119.49 84.04 119.002C83.472 118.514 82.688 118.27 81.688 118.27C80.696 118.27 79.916 118.514 79.348 119.002C78.78 119.49 78.496 120.154 78.496 120.994C78.496 121.61 78.632 122.102 78.904 122.47C79.176 122.838 79.548 123.078 80.02 123.19V124.606C79.188 124.438 78.536 124.042 78.064 123.418C77.592 122.794 77.356 121.99 77.356 121.006ZM77.356 127.972C77.356 127.468 77.44 127.052 77.608 126.724C77.776 126.396 77.996 126.152 78.268 125.992C78.548 125.832 78.852 125.752 79.18 125.752C79.756 125.752 80.212 125.976 80.548 126.424C80.884 126.872 81.052 127.512 81.052 128.344V129.904H81.16C81.624 129.904 81.972 129.776 82.204 129.52C82.436 129.272 82.552 128.948 82.552 128.548C82.552 128.196 82.464 127.888 82.288 127.624C82.12 127.368 81.868 127.212 81.532 127.156V125.884C81.964 125.924 82.332 126.068 82.636 126.316C82.948 126.572 83.184 126.892 83.344 127.276C83.512 127.668 83.596 128.096 83.596 128.56C83.596 129.392 83.376 130.036 82.936 130.492C82.504 130.948 81.912 131.176 81.16 131.176H77.5V130.072L78.52 129.964C78.192 129.796 77.916 129.552 77.692 129.232C77.468 128.912 77.356 128.492 77.356 127.972ZM78.388 128.224C78.388 128.568 78.468 128.856 78.628 129.088C78.796 129.328 79.016 129.512 79.288 129.64C79.56 129.776 79.86 129.86 80.188 129.892V128.476C80.188 127.972 80.1 127.612 79.924 127.396C79.748 127.188 79.528 127.084 79.264 127.084C78.992 127.084 78.776 127.184 78.616 127.384C78.464 127.592 78.388 127.872 78.388 128.224ZM77.5 132.659H83.452V133.799L82.324 133.907C82.716 134.115 83.024 134.403 83.248 134.771C83.48 135.147 83.596 135.599 83.596 136.127H82.264V135.779C82.264 135.427 82.204 135.111 82.084 134.831C81.972 134.559 81.776 134.339 81.496 134.171C81.224 134.011 80.844 133.931 80.356 133.931H77.5V132.659ZM77.356 139.766C77.356 139.19 77.492 138.682 77.764 138.242C78.036 137.802 78.408 137.458 78.88 137.21C79.352 136.962 79.888 136.838 80.488 136.838C81.088 136.838 81.62 136.962 82.084 137.21C82.556 137.458 82.924 137.802 83.188 138.242C83.46 138.69 83.596 139.202 83.596 139.778C83.596 140.25 83.504 140.662 83.32 141.014C83.136 141.374 82.876 141.654 82.54 141.854H86.14V143.126H77.5V141.986L78.424 141.854C78.144 141.662 77.896 141.398 77.68 141.062C77.464 140.726 77.356 140.294 77.356 139.766ZM78.46 139.994C78.46 140.538 78.648 140.982 79.024 141.326C79.4 141.678 79.884 141.854 80.476 141.854C81.076 141.854 81.56 141.678 81.928 141.326C82.304 140.982 82.492 140.538 82.492 139.994C82.492 139.45 82.304 139.002 81.928 138.65C81.56 138.298 81.076 138.122 80.476 138.122C80.084 138.122 79.736 138.202 79.432 138.362C79.128 138.522 78.888 138.742 78.712 139.022C78.544 139.31 78.46 139.634 78.46 139.994ZM77.5 147.801H85.9V149.073H82.3V153.141H85.9V154.413H77.5V153.141H81.256V149.073H77.5V147.801ZM77.356 158.858C77.356 158.29 77.484 157.778 77.74 157.322C78.004 156.874 78.368 156.518 78.832 156.254C79.304 155.99 79.852 155.858 80.476 155.858C81.1 155.858 81.644 155.99 82.108 156.254C82.58 156.526 82.944 156.89 83.2 157.346C83.464 157.802 83.596 158.31 83.596 158.87C83.596 159.438 83.464 159.946 83.2 160.394C82.944 160.85 82.58 161.21 82.108 161.474C81.644 161.746 81.1 161.882 80.476 161.882C79.852 161.882 79.304 161.746 78.832 161.474C78.368 161.21 78.004 160.85 77.74 160.394C77.484 159.938 77.356 159.426 77.356 158.858ZM78.448 158.858C78.448 159.162 78.524 159.442 78.676 159.698C78.828 159.962 79.052 160.174 79.348 160.334C79.652 160.494 80.028 160.574 80.476 160.574C80.924 160.574 81.296 160.494 81.592 160.334C81.896 160.182 82.124 159.974 82.276 159.71C82.428 159.454 82.504 159.174 82.504 158.87C82.504 158.566 82.428 158.282 82.276 158.018C82.124 157.762 81.896 157.554 81.592 157.394C81.296 157.234 80.924 157.154 80.476 157.154C80.028 157.154 79.652 157.234 79.348 157.394C79.052 157.554 78.828 157.762 78.676 158.018C78.524 158.274 78.448 158.554 78.448 158.858ZM77.5 163.257H86.14V164.529H77.5V163.257ZM77.356 168.852C77.356 168.276 77.492 167.768 77.764 167.328C78.036 166.888 78.408 166.544 78.88 166.296C79.352 166.048 79.888 165.924 80.488 165.924C81.088 165.924 81.62 166.048 82.084 166.296C82.556 166.544 82.924 166.888 83.188 167.328C83.46 167.776 83.596 168.288 83.596 168.864C83.596 169.336 83.504 169.748 83.32 170.1C83.136 170.46 82.876 170.74 82.54 170.94H86.14V172.212H77.5V171.072L78.424 170.94C78.144 170.748 77.896 170.484 77.68 170.148C77.464 169.812 77.356 169.38 77.356 168.852ZM78.46 169.08C78.46 169.624 78.648 170.068 79.024 170.412C79.4 170.764 79.884 170.94 80.476 170.94C81.076 170.94 81.56 170.764 81.928 170.412C82.304 170.068 82.492 169.624 82.492 169.08C82.492 168.536 82.304 168.088 81.928 167.736C81.56 167.384 81.076 167.208 80.476 167.208C80.084 167.208 79.736 167.288 79.432 167.448C79.128 167.608 78.888 167.828 78.712 168.108C78.544 168.396 78.46 168.72 78.46 169.08ZM77.356 176.6C77.356 176.016 77.484 175.496 77.74 175.04C78.004 174.592 78.368 174.24 78.832 173.984C79.296 173.728 79.836 173.6 80.452 173.6C81.076 173.6 81.624 173.724 82.096 173.972C82.568 174.228 82.936 174.58 83.2 175.028C83.464 175.484 83.596 176.012 83.596 176.612C83.596 177.196 83.464 177.704 83.2 178.136C82.944 178.568 82.6 178.904 82.168 179.144C81.736 179.384 81.26 179.504 80.74 179.504C80.66 179.504 80.572 179.5 80.476 179.492C80.388 179.492 80.288 179.488 80.176 179.48V174.848C79.6 174.888 79.16 175.076 78.856 175.412C78.56 175.756 78.412 176.152 78.412 176.6C78.412 176.96 78.492 177.26 78.652 177.5C78.82 177.748 79.044 177.932 79.324 178.052V179.324C78.764 179.164 78.296 178.844 77.92 178.364C77.544 177.892 77.356 177.304 77.356 176.6ZM82.552 176.6C82.552 176.176 82.424 175.8 82.168 175.472C81.92 175.144 81.544 174.944 81.04 174.872V178.232C81.504 178.208 81.872 178.044 82.144 177.74C82.416 177.436 82.552 177.056 82.552 176.6ZM77.5 180.824H83.452V181.964L82.324 182.072C82.716 182.28 83.024 182.568 83.248 182.936C83.48 183.312 83.596 183.764 83.596 184.292H82.264V183.944C82.264 183.592 82.204 183.276 82.084 182.996C81.972 182.724 81.776 182.504 81.496 182.336C81.224 182.176 80.844 182.096 80.356 182.096H77.5V180.824Z" fill="white"/>
<path d="M47.5 117.688H60.1V125.59H58.552V119.596H54.574V124.564H53.044V119.596H47.5V117.688ZM47.284 131.126C47.284 130.274 47.476 129.506 47.86 128.822C48.256 128.15 48.802 127.616 49.498 127.22C50.206 126.824 51.028 126.626 51.964 126.626C52.9 126.626 53.716 126.824 54.412 127.22C55.12 127.628 55.666 128.174 56.05 128.858C56.446 129.542 56.644 130.304 56.644 131.144C56.644 131.996 56.446 132.758 56.05 133.43C55.666 134.114 55.12 134.654 54.412 135.05C53.716 135.458 52.9 135.662 51.964 135.662C51.028 135.662 50.206 135.458 49.498 135.05C48.802 134.654 48.256 134.114 47.86 133.43C47.476 132.746 47.284 131.978 47.284 131.126ZM48.922 131.126C48.922 131.582 49.036 132.002 49.264 132.386C49.492 132.782 49.828 133.1 50.272 133.34C50.728 133.58 51.292 133.7 51.964 133.7C52.636 133.7 53.194 133.58 53.638 133.34C54.094 133.112 54.436 132.8 54.664 132.404C54.892 132.02 55.006 131.6 55.006 131.144C55.006 130.688 54.892 130.262 54.664 129.866C54.436 129.482 54.094 129.17 53.638 128.93C53.194 128.69 52.636 128.57 51.964 128.57C51.292 128.57 50.728 128.69 50.272 128.93C49.828 129.17 49.492 129.482 49.264 129.866C49.036 130.25 48.922 130.67 48.922 131.126ZM47.5 137.726H60.46V139.634H47.5V137.726ZM47.284 145.074C47.284 144.318 47.41 143.694 47.662 143.202C47.914 142.71 48.244 142.344 48.652 142.104C49.072 141.864 49.528 141.744 50.02 141.744C50.884 141.744 51.568 142.08 52.072 142.752C52.576 143.424 52.828 144.384 52.828 145.632V147.972H52.99C53.686 147.972 54.208 147.78 54.556 147.396C54.904 147.024 55.078 146.538 55.078 145.938C55.078 145.41 54.946 144.948 54.682 144.552C54.43 144.168 54.052 143.934 53.548 143.85V141.942C54.196 142.002 54.748 142.218 55.204 142.59C55.672 142.974 56.026 143.454 56.266 144.03C56.518 144.618 56.644 145.26 56.644 145.956C56.644 147.204 56.314 148.17 55.654 148.854C55.006 149.538 54.118 149.88 52.99 149.88H47.5V148.224L49.03 148.062C48.538 147.81 48.124 147.444 47.788 146.964C47.452 146.484 47.284 145.854 47.284 145.074ZM48.832 145.452C48.832 145.968 48.952 146.4 49.192 146.748C49.444 147.108 49.774 147.384 50.182 147.576C50.59 147.78 51.04 147.906 51.532 147.954V145.83C51.532 145.074 51.4 144.534 51.136 144.21C50.872 143.898 50.542 143.742 50.146 143.742C49.738 143.742 49.414 143.892 49.174 144.192C48.946 144.504 48.832 144.924 48.832 145.452ZM47.5 152.104H56.428V153.814L54.736 153.976C55.324 154.288 55.786 154.72 56.122 155.272C56.47 155.836 56.644 156.514 56.644 157.306H54.646V156.784C54.646 156.256 54.556 155.782 54.376 155.362C54.208 154.954 53.914 154.624 53.494 154.372C53.086 154.132 52.516 154.012 51.784 154.012H47.5V152.104ZM58.12 160.022C58.12 159.662 58.228 159.362 58.444 159.122C58.672 158.894 58.954 158.78 59.29 158.78C59.626 158.78 59.902 158.894 60.118 159.122C60.346 159.362 60.46 159.662 60.46 160.022C60.46 160.382 60.346 160.676 60.118 160.904C59.902 161.144 59.626 161.264 59.29 161.264C58.954 161.264 58.672 161.144 58.444 160.904C58.228 160.676 58.12 160.382 58.12 160.022ZM47.5 159.068H56.428V160.976H47.5V159.068ZM47.5 163.495H56.428V165.187L54.862 165.331C55.414 165.607 55.846 166.009 56.158 166.537C56.482 167.077 56.644 167.695 56.644 168.391C56.644 169.471 56.308 170.317 55.636 170.929C54.964 171.553 53.962 171.865 52.63 171.865H47.5V169.975H52.432C54.16 169.975 55.024 169.267 55.024 167.851C55.024 167.143 54.772 166.555 54.268 166.087C53.764 165.631 53.044 165.403 52.108 165.403H47.5V163.495ZM47.5 178.719H60.1V183.471C60.1 184.779 59.794 185.769 59.182 186.441C58.57 187.113 57.802 187.449 56.878 187.449C56.074 187.449 55.432 187.233 54.952 186.801C54.484 186.369 54.166 185.847 53.998 185.235C53.902 185.715 53.71 186.141 53.422 186.513C53.134 186.897 52.774 187.197 52.342 187.413C51.91 187.629 51.442 187.737 50.938 187.737C50.29 187.737 49.702 187.575 49.174 187.251C48.658 186.939 48.25 186.477 47.95 185.865C47.65 185.253 47.5 184.503 47.5 183.615V178.719ZM54.7 180.627V183.237C54.7 183.969 54.868 184.527 55.204 184.911C55.552 185.295 56.026 185.487 56.626 185.487C57.214 185.487 57.682 185.295 58.03 184.911C58.378 184.539 58.552 183.969 58.552 183.201V180.627H54.7ZM49.066 180.627V183.363C49.066 184.131 49.246 184.725 49.606 185.145C49.966 185.577 50.47 185.793 51.118 185.793C51.766 185.793 52.276 185.571 52.648 185.127C53.032 184.683 53.224 184.083 53.224 183.327V180.627H49.066ZM47.284 192.781C47.284 192.025 47.41 191.401 47.662 190.909C47.914 190.417 48.244 190.051 48.652 189.811C49.072 189.571 49.528 189.451 50.02 189.451C50.884 189.451 51.568 189.787 52.072 190.459C52.576 191.131 52.828 192.091 52.828 193.339V195.679H52.99C53.686 195.679 54.208 195.487 54.556 195.103C54.904 194.731 55.078 194.245 55.078 193.645C55.078 193.117 54.946 192.655 54.682 192.259C54.43 191.875 54.052 191.641 53.548 191.557V189.649C54.196 189.709 54.748 189.925 55.204 190.297C55.672 190.681 56.026 191.161 56.266 191.737C56.518 192.325 56.644 192.967 56.644 193.663C56.644 194.911 56.314 195.877 55.654 196.561C55.006 197.245 54.118 197.587 52.99 197.587H47.5V195.931L49.03 195.769C48.538 195.517 48.124 195.151 47.788 194.671C47.452 194.191 47.284 193.561 47.284 192.781ZM48.832 193.159C48.832 193.675 48.952 194.107 49.192 194.455C49.444 194.815 49.774 195.091 50.182 195.283C50.59 195.487 51.04 195.613 51.532 195.661V193.537C51.532 192.781 51.4 192.241 51.136 191.917C50.872 191.605 50.542 191.449 50.146 191.449C49.738 191.449 49.414 191.599 49.174 191.899C48.946 192.211 48.832 192.631 48.832 193.159ZM47.5 199.811H60.46V201.719H47.5V199.811ZM47.284 208.312C47.284 207.46 47.476 206.692 47.86 206.008C48.256 205.336 48.802 204.802 49.498 204.406C50.206 204.01 51.028 203.812 51.964 203.812C52.9 203.812 53.716 204.01 54.412 204.406C55.12 204.814 55.666 205.36 56.05 206.044C56.446 206.728 56.644 207.49 56.644 208.33C56.644 209.182 56.446 209.944 56.05 210.616C55.666 211.3 55.12 211.84 54.412 212.236C53.716 212.644 52.9 212.848 51.964 212.848C51.028 212.848 50.206 212.644 49.498 212.236C48.802 211.84 48.256 211.3 47.86 210.616C47.476 209.932 47.284 209.164 47.284 208.312ZM48.922 208.312C48.922 208.768 49.036 209.188 49.264 209.572C49.492 209.968 49.828 210.286 50.272 210.526C50.728 210.766 51.292 210.886 51.964 210.886C52.636 210.886 53.194 210.766 53.638 210.526C54.094 210.298 54.436 209.986 54.664 209.59C54.892 209.206 55.006 208.786 55.006 208.33C55.006 207.874 54.892 207.448 54.664 207.052C54.436 206.668 54.094 206.356 53.638 206.116C53.194 205.876 52.636 205.756 51.964 205.756C51.292 205.756 50.728 205.876 50.272 206.116C49.828 206.356 49.492 206.668 49.264 207.052C49.036 207.436 48.922 207.856 48.922 208.312ZM50.236 218.09C50.236 217.622 50.29 217.19 50.398 216.794L49.642 216.02C49.558 216.152 49.486 216.314 49.426 216.506C49.366 216.698 49.312 216.968 49.264 217.316C49.216 217.664 49.168 218.138 49.12 218.738C49.012 219.926 48.724 220.784 48.256 221.312C47.8 221.84 47.188 222.104 46.42 222.104C45.892 222.104 45.394 221.96 44.926 221.672C44.446 221.396 44.062 220.958 43.774 220.358C43.474 219.77 43.324 219.014 43.324 218.09C43.324 216.842 43.564 215.828 44.044 215.048C44.512 214.28 45.226 213.896 46.186 213.896C46.558 213.896 46.93 213.992 47.302 214.184C47.662 214.388 48.004 214.706 48.328 215.138C48.436 214.886 48.55 214.664 48.67 214.472C48.802 214.292 48.934 214.13 49.066 213.986H49.498L51.082 215.534C51.682 214.838 52.468 214.49 53.44 214.49C54.028 214.49 54.562 214.628 55.042 214.904C55.534 215.192 55.924 215.606 56.212 216.146C56.5 216.686 56.644 217.334 56.644 218.09C56.644 218.594 56.572 219.062 56.428 219.494V222.824H55.168L55.078 221.24C54.586 221.528 54.04 221.672 53.44 221.672C52.84 221.672 52.3 221.528 51.82 221.24C51.34 220.964 50.956 220.556 50.668 220.016C50.38 219.488 50.236 218.846 50.236 218.09ZM51.73 218.09C51.73 218.642 51.874 219.086 52.162 219.422C52.462 219.77 52.882 219.944 53.422 219.944C53.974 219.944 54.394 219.77 54.682 219.422C54.97 219.086 55.114 218.642 55.114 218.09C55.114 217.526 54.97 217.07 54.682 216.722C54.394 216.386 53.974 216.218 53.422 216.218C52.882 216.218 52.462 216.386 52.162 216.722C51.874 217.07 51.73 217.526 51.73 218.09ZM46.366 215.696C45.85 215.696 45.466 215.924 45.214 216.38C44.95 216.836 44.818 217.406 44.818 218.09C44.818 218.75 44.962 219.284 45.25 219.692C45.526 220.1 45.898 220.304 46.366 220.304C46.714 220.304 47.014 220.166 47.266 219.89C47.506 219.614 47.656 219.092 47.716 218.324C47.752 217.748 47.806 217.238 47.878 216.794C47.65 216.374 47.404 216.086 47.14 215.93C46.876 215.774 46.618 215.696 46.366 215.696ZM47.284 227.82C47.284 226.74 47.62 225.888 48.292 225.264C48.964 224.652 49.966 224.346 51.298 224.346H56.428V226.254H51.496C49.768 226.254 48.904 226.962 48.904 228.378C48.904 229.086 49.156 229.668 49.66 230.124C50.164 230.58 50.884 230.808 51.82 230.808H56.428V232.716H47.5V231.024L49.066 230.88C48.514 230.604 48.076 230.196 47.752 229.656C47.44 229.128 47.284 228.516 47.284 227.82ZM47.5 235.144H56.428V236.836L54.862 236.98C55.414 237.256 55.846 237.658 56.158 238.186C56.482 238.726 56.644 239.344 56.644 240.04C56.644 241.12 56.308 241.966 55.636 242.578C54.964 243.202 53.962 243.514 52.63 243.514H47.5V241.624H52.432C54.16 241.624 55.024 240.916 55.024 239.5C55.024 238.792 54.772 238.204 54.268 237.736C53.764 237.28 53.044 237.052 52.108 237.052H47.5V235.144Z" fill="white"/>
<path opacity="0.8" d="M77.5 294.262H85.9V299.602H84.868V295.534H82.252V299.242H81.244V295.534H78.532V299.602H77.5V294.262ZM77.5 300.494L80.476 302.606L83.452 300.494V301.85L81.172 303.446L83.452 305.03V306.398L80.476 304.286L77.5 306.398V305.03L79.78 303.446L77.5 301.85V300.494ZM74.86 307.433H83.452V308.573L82.528 308.705C82.808 308.897 83.056 309.161 83.272 309.497C83.488 309.833 83.596 310.265 83.596 310.793C83.596 311.369 83.46 311.877 83.188 312.317C82.916 312.757 82.544 313.101 82.072 313.349C81.6 313.605 81.064 313.733 80.464 313.733C79.864 313.733 79.328 313.605 78.856 313.349C78.392 313.101 78.024 312.757 77.752 312.317C77.488 311.877 77.356 311.365 77.356 310.781C77.356 310.317 77.448 309.905 77.632 309.545C77.816 309.193 78.076 308.913 78.412 308.705H74.86V307.433ZM78.46 310.565C78.46 311.109 78.644 311.557 79.012 311.909C79.388 312.261 79.876 312.437 80.476 312.437C80.868 312.437 81.216 312.357 81.52 312.197C81.824 312.037 82.06 311.817 82.228 311.537C82.404 311.257 82.492 310.933 82.492 310.565C82.492 310.021 82.304 309.573 81.928 309.221C81.552 308.877 81.068 308.705 80.476 308.705C79.876 308.705 79.388 308.877 79.012 309.221C78.644 309.573 78.46 310.021 78.46 310.565ZM84.58 315.829C84.58 315.589 84.652 315.389 84.796 315.229C84.948 315.077 85.136 315.001 85.36 315.001C85.584 315.001 85.768 315.077 85.912 315.229C86.064 315.389 86.14 315.589 86.14 315.829C86.14 316.069 86.064 316.265 85.912 316.417C85.768 316.577 85.584 316.657 85.36 316.657C85.136 316.657 84.948 316.577 84.796 316.417C84.652 316.265 84.58 316.069 84.58 315.829ZM77.5 315.193H83.452V316.465H77.5V315.193ZM77.5 318.144H83.452V319.284L82.324 319.392C82.716 319.6 83.024 319.888 83.248 320.256C83.48 320.632 83.596 321.084 83.596 321.612H82.264V321.264C82.264 320.912 82.204 320.596 82.084 320.316C81.972 320.044 81.776 319.824 81.496 319.656C81.224 319.496 80.844 319.416 80.356 319.416H77.5V318.144ZM74.86 323.398L77.992 324.826V324.478L83.452 322.126V323.506L79.048 325.33L83.452 327.238V328.582L74.86 324.742V323.398ZM77.5 332.7H85.9V335.424C85.9 336.408 85.728 337.216 85.384 337.848C85.04 338.488 84.552 338.96 83.92 339.264C83.296 339.576 82.552 339.732 81.688 339.732C80.832 339.732 80.088 339.576 79.456 339.264C78.832 338.96 78.348 338.488 78.004 337.848C77.668 337.216 77.5 336.408 77.5 335.424V332.7ZM78.58 333.972V335.376C78.58 336.136 78.704 336.736 78.952 337.176C79.2 337.624 79.556 337.944 80.02 338.136C80.484 338.336 81.04 338.436 81.688 338.436C82.336 338.436 82.896 338.336 83.368 338.136C83.84 337.944 84.2 337.624 84.448 337.176C84.704 336.736 84.832 336.136 84.832 335.376V333.972H78.58ZM77.356 343.105C77.356 342.601 77.44 342.185 77.608 341.857C77.776 341.529 77.996 341.285 78.268 341.125C78.548 340.965 78.852 340.885 79.18 340.885C79.756 340.885 80.212 341.109 80.548 341.557C80.884 342.005 81.052 342.645 81.052 343.477V345.037H81.16C81.624 345.037 81.972 344.909 82.204 344.653C82.436 344.405 82.552 344.081 82.552 343.681C82.552 343.329 82.464 343.021 82.288 342.757C82.12 342.501 81.868 342.345 81.532 342.289V341.017C81.964 341.057 82.332 341.201 82.636 341.449C82.948 341.705 83.184 342.025 83.344 342.409C83.512 342.801 83.596 343.229 83.596 343.693C83.596 344.525 83.376 345.169 82.936 345.625C82.504 346.081 81.912 346.309 81.16 346.309H77.5V345.205L78.52 345.097C78.192 344.929 77.916 344.685 77.692 344.365C77.468 344.045 77.356 343.625 77.356 343.105ZM78.388 343.357C78.388 343.701 78.468 343.989 78.628 344.221C78.796 344.461 79.016 344.645 79.288 344.773C79.56 344.909 79.86 344.993 80.188 345.025V343.609C80.188 343.105 80.1 342.745 79.924 342.529C79.748 342.321 79.528 342.217 79.264 342.217C78.992 342.217 78.776 342.317 78.616 342.517C78.464 342.725 78.388 343.005 78.388 343.357ZM77.5 350.171C77.5 349.587 77.64 349.123 77.92 348.779C78.208 348.435 78.716 348.263 79.444 348.263H82.384V347.243H83.452V348.263L84.964 348.419V349.535H83.452V351.215H82.384V349.535H79.444C79.116 349.535 78.888 349.603 78.76 349.739C78.64 349.883 78.58 350.127 78.58 350.471V351.155H77.5V350.171ZM77.356 355.158C77.356 354.574 77.484 354.054 77.74 353.598C78.004 353.15 78.368 352.798 78.832 352.542C79.296 352.286 79.836 352.158 80.452 352.158C81.076 352.158 81.624 352.282 82.096 352.53C82.568 352.786 82.936 353.138 83.2 353.586C83.464 354.042 83.596 354.57 83.596 355.17C83.596 355.754 83.464 356.262 83.2 356.694C82.944 357.126 82.6 357.462 82.168 357.702C81.736 357.942 81.26 358.062 80.74 358.062C80.66 358.062 80.572 358.058 80.476 358.05C80.388 358.05 80.288 358.046 80.176 358.038V353.406C79.6 353.446 79.16 353.634 78.856 353.97C78.56 354.314 78.412 354.71 78.412 355.158C78.412 355.518 78.492 355.818 78.652 356.058C78.82 356.306 79.044 356.49 79.324 356.61V357.882C78.764 357.722 78.296 357.402 77.92 356.922C77.544 356.45 77.356 355.862 77.356 355.158ZM82.552 355.158C82.552 354.734 82.424 354.358 82.168 354.03C81.92 353.702 81.544 353.502 81.04 353.43V356.79C81.504 356.766 81.872 356.602 82.144 356.298C82.416 355.994 82.552 355.614 82.552 355.158Z" fill="white"/>
<path d="M47.284 299.728C47.284 298.588 47.554 297.604 48.094 296.776C48.646 295.96 49.408 295.33 50.38 294.886C51.364 294.454 52.504 294.238 53.8 294.238C55.096 294.238 56.23 294.454 57.202 294.886C58.186 295.33 58.948 295.96 59.488 296.776C60.04 297.604 60.316 298.588 60.316 299.728C60.316 300.868 60.04 301.846 59.488 302.662C58.948 303.478 58.186 304.102 57.202 304.534C56.23 304.978 55.096 305.2 53.8 305.2C52.504 305.2 51.364 304.978 50.38 304.534C49.408 304.102 48.646 303.478 48.094 302.662C47.554 301.846 47.284 300.868 47.284 299.728ZM48.994 299.728C48.994 300.412 49.186 301.018 49.57 301.546C49.954 302.086 50.506 302.506 51.226 302.806C51.946 303.106 52.804 303.256 53.8 303.256C54.796 303.256 55.654 303.106 56.374 302.806C57.094 302.506 57.646 302.086 58.03 301.546C58.414 301.018 58.606 300.412 58.606 299.728C58.606 299.032 58.414 298.42 58.03 297.892C57.646 297.364 57.094 296.95 56.374 296.65C55.654 296.35 54.796 296.2 53.8 296.2C52.804 296.2 51.946 296.35 51.226 296.65C50.506 296.95 49.954 297.364 49.57 297.892C49.186 298.42 48.994 299.032 48.994 299.728ZM47.284 311.557C47.284 310.729 47.446 310.021 47.77 309.433C48.094 308.845 48.526 308.383 49.066 308.047C49.606 307.723 50.194 307.525 50.83 307.453V309.235C50.206 309.343 49.726 309.601 49.39 310.009C49.054 310.417 48.886 310.939 48.886 311.575C48.886 312.451 49.294 313.171 50.11 313.735C50.938 314.311 52.204 314.617 53.908 314.653C53.38 314.365 52.93 313.915 52.558 313.303C52.186 312.703 52 312.007 52 311.215C52 310.507 52.168 309.841 52.504 309.217C52.84 308.593 53.308 308.089 53.908 307.705C54.52 307.321 55.24 307.129 56.068 307.129C56.8 307.129 57.49 307.309 58.138 307.669C58.786 308.029 59.308 308.533 59.704 309.181C60.112 309.841 60.316 310.621 60.316 311.521C60.316 312.445 60.142 313.225 59.794 313.861C59.446 314.497 58.984 315.007 58.408 315.391C57.832 315.775 57.184 316.051 56.464 316.219C55.744 316.399 55.006 316.489 54.25 316.489C52.858 316.489 51.64 316.291 50.596 315.895C49.552 315.511 48.736 314.953 48.148 314.221C47.572 313.489 47.284 312.601 47.284 311.557ZM53.638 311.647C53.638 312.151 53.752 312.601 53.98 312.997C54.208 313.393 54.508 313.705 54.88 313.933C55.264 314.173 55.684 314.293 56.14 314.293C56.632 314.293 57.064 314.173 57.436 313.933C57.82 313.705 58.12 313.387 58.336 312.979C58.552 312.583 58.66 312.133 58.66 311.629C58.66 311.125 58.552 310.675 58.336 310.279C58.12 309.883 57.82 309.565 57.436 309.325C57.064 309.097 56.638 308.983 56.158 308.983C55.39 308.983 54.778 309.235 54.322 309.739C53.866 310.243 53.638 310.879 53.638 311.647ZM45.646 316.993L61.378 321.493V323.365L45.646 318.847V316.993ZM47.5 324.864H48.868C49.516 325.68 50.17 326.46 50.83 327.204C51.49 327.948 52.138 328.608 52.774 329.184C53.422 329.772 54.052 330.234 54.664 330.57C55.288 330.906 55.888 331.074 56.464 331.074C56.848 331.074 57.208 331.008 57.544 330.876C57.892 330.744 58.168 330.528 58.372 330.228C58.588 329.928 58.696 329.526 58.696 329.022C58.696 328.266 58.456 327.696 57.976 327.312C57.496 326.94 56.92 326.76 56.248 326.772V324.918C57.136 324.93 57.88 325.116 58.48 325.476C59.08 325.848 59.536 326.34 59.848 326.952C60.16 327.576 60.316 328.278 60.316 329.058C60.316 330.246 59.98 331.194 59.308 331.902C58.648 332.622 57.724 332.982 56.536 332.982C55.828 332.982 55.126 332.808 54.43 332.46C53.734 332.124 53.062 331.68 52.414 331.128C51.778 330.588 51.178 330.006 50.614 329.382C50.05 328.758 49.54 328.164 49.084 327.6V333.36H47.5V324.864ZM47.284 339.49C47.284 338.65 47.434 337.888 47.734 337.204C48.046 336.532 48.478 335.992 49.03 335.584C49.582 335.188 50.23 334.99 50.974 334.99C51.73 334.99 52.408 335.2 53.008 335.62C53.608 336.052 54.016 336.622 54.232 337.33C54.484 336.694 54.85 336.202 55.33 335.854C55.822 335.506 56.362 335.332 56.95 335.332C57.562 335.332 58.12 335.494 58.624 335.818C59.14 336.142 59.548 336.61 59.848 337.222C60.16 337.846 60.316 338.602 60.316 339.49C60.316 340.378 60.16 341.128 59.848 341.74C59.548 342.364 59.14 342.838 58.624 343.162C58.12 343.486 57.562 343.648 56.95 343.648C56.374 343.648 55.834 343.468 55.33 343.108C54.838 342.76 54.472 342.268 54.232 341.632C54.004 342.34 53.59 342.904 52.99 343.324C52.402 343.756 51.73 343.972 50.974 343.972C50.23 343.972 49.582 343.774 49.03 343.378C48.478 342.982 48.046 342.442 47.734 341.758C47.434 341.086 47.284 340.33 47.284 339.49ZM54.844 339.49C54.844 340.186 55.024 340.732 55.384 341.128C55.744 341.536 56.206 341.74 56.77 341.74C57.406 341.74 57.892 341.542 58.228 341.146C58.564 340.75 58.732 340.198 58.732 339.49C58.732 338.782 58.564 338.23 58.228 337.834C57.892 337.438 57.406 337.24 56.77 337.24C56.206 337.24 55.744 337.438 55.384 337.834C55.024 338.23 54.844 338.782 54.844 339.49ZM48.904 339.49C48.904 340.354 49.108 341.002 49.516 341.434C49.936 341.866 50.47 342.082 51.118 342.082C51.838 342.082 52.39 341.848 52.774 341.38C53.17 340.924 53.368 340.294 53.368 339.49C53.368 338.686 53.17 338.05 52.774 337.582C52.39 337.114 51.838 336.88 51.118 336.88C50.47 336.88 49.936 337.096 49.516 337.528C49.108 337.972 48.904 338.626 48.904 339.49Z" fill="white"/>
<path d="M77.1426 533.561V528.442C77.1426 526.894 76.6664 525.703 75.1188 524.989L52.8569 515.227V522.132C52.8569 522.132 55.8331 523.323 56.5473 523.561C56.5473 524.275 56.5473 531.061 56.5473 532.013C55.714 532.251 52.9759 532.846 52.9759 532.846V539.037L77.1426 533.561ZM61.5473 525.465C62.9759 526.061 68.3331 528.084 68.3331 528.084C68.214 528.084 69.7616 528.68 70.595 528.918L68.4521 529.394C68.4521 529.394 62.6188 530.703 61.4283 530.942V525.465H61.5473Z" fill="#FAFAFA"/>
<path d="M60.8333 515.703C55.8333 515.703 52.5 511.179 52.5 504.156C52.5 501.179 53.0952 498.322 53.8095 496.775L59.2857 497.727L58.9286 498.56C57.9762 500.703 57.619 502.132 57.619 504.751C57.619 506.656 58.3333 508.679 60 508.679C61.0714 508.679 61.7857 507.846 62.9762 505.227C64.1667 502.727 66.0714 499.394 69.5238 499.394C74.2857 499.394 77.5 504.037 77.5 510.584C77.5 513.084 77.0238 515.227 76.4286 516.537L71.1905 515.584L71.6667 515.108C72.1429 513.918 72.619 512.37 72.619 510.108C72.5 507.608 71.4286 506.418 70.4762 506.418C69.4048 506.418 68.5714 507.846 67.5 510.108C65.7143 513.918 63.6905 515.703 60.8333 515.703Z" fill="#FAFAFA"/>
<path d="M76.9047 457.607L77.3809 457.726V467.964C77.3809 469.393 76.9047 470.464 75.357 470.821L64.6428 473.083C70.3571 470.821 74.9999 465.583 76.9047 457.607Z" fill="#FAFAFA" fill-opacity="0.7"/>
<path d="M77.1427 487.488L52.976 477.131V470.107L73.2141 464.155C70.476 468.441 66.1903 472.012 63.2141 473.322L60.7141 474.036L77.2617 480.465V487.488H77.1427Z" fill="#FAFAFA"/>
<path d="M77.2617 490.227V496.775L52.976 492.608V486.06L77.2617 490.227Z" fill="#FAFAFA"/>
<defs>
<filter id="filter0_b_9840_4955" x="15.7148" y="348.716" width="137.322" height="137.321" filterUnits="userSpaceOnUse" color-interpolation-filters="sRGB">
<feFlood flood-opacity="0" result="BackgroundImageFix"/>
<feGaussianBlur in="BackgroundImageFix" stdDeviation="25"/>
<feComposite in2="SourceAlpha" operator="in" result="effect1_backgroundBlur_9840_4955"/>
<feBlend mode="normal" in="SourceGraphic" in2="effect1_backgroundBlur_9840_4955" result="shape"/>
</filter>
<filter id="filter1_b_9840_4955" x="10.9043" y="371.345" width="137.322" height="137.321" filterUnits="userSpaceOnUse" color-interpolation-filters="sRGB">
<feFlood flood-opacity="0" result="BackgroundImageFix"/>
<feGaussianBlur in="BackgroundImageFix" stdDeviation="25"/>
<feComposite in2="SourceAlpha" operator="in" result="effect1_backgroundBlur_9840_4955"/>
<feBlend mode="normal" in="SourceGraphic" in2="effect1_backgroundBlur_9840_4955" result="shape"/>
</filter>
<filter id="filter2_b_9840_4955" x="17.6504" y="371.345" width="128.639" height="114.692" filterUnits="userSpaceOnUse" color-interpolation-filters="sRGB">
<feFlood flood-opacity="0" result="BackgroundImageFix"/>
<feGaussianBlur in="BackgroundImageFix" stdDeviation="25"/>
<feComposite in2="SourceAlpha" operator="in" result="effect1_backgroundBlur_9840_4955"/>
<feBlend mode="normal" in="SourceGraphic" in2="effect1_backgroundBlur_9840_4955" result="shape"/>
</filter>
<clipPath id="clip0_9840_4955">
<rect width="32" height="32" fill="white" transform="translate(272.109 470.259) rotate(102)"/>
</clipPath>
<clipPath id="clip1_9840_4955">
<rect x="113.895" y="396.948" width="74.6269" height="50" rx="8" transform="rotate(102 113.895 396.948)" fill="white"/>
</clipPath>
</defs>
</svg>
