<svg width="90" height="25" viewBox="0 0 90 25" fill="none" xmlns="http://www.w3.org/2000/svg">
<path d="M10.968 24.384C8.856 24.384 7.01067 23.904 5.432 22.944C3.85333 21.984 2.62667 20.6507 1.752 18.944C0.877333 17.216 0.44 15.2107 0.44 12.928C0.44 10.624 0.888 8.59733 1.784 6.848C2.70133 5.07733 3.992 3.70133 5.656 2.72C7.34133 1.71733 9.336 1.216 11.64 1.216C14.264 1.216 16.44 1.84533 18.168 3.104C19.896 4.36267 21.016 6.10133 21.528 8.32H16.952C16.6107 7.27467 15.992 6.464 15.096 5.888C14.2 5.29067 13.048 4.992 11.64 4.992C9.4 4.992 7.672 5.70667 6.456 7.136C5.24 8.544 4.632 10.4853 4.632 12.96C4.632 15.4347 5.22933 17.3547 6.424 18.72C7.64 20.064 9.28267 20.736 11.352 20.736C13.3787 20.736 14.904 20.192 15.928 19.104C16.9733 17.9947 17.6027 16.544 17.816 14.752H12.152V11.68H21.944V24H18.168L17.848 21.056C17.1227 22.1227 16.216 22.944 15.128 23.52C14.04 24.096 12.6533 24.384 10.968 24.384ZM27.078 5.664C26.3313 5.664 25.7127 5.44 25.222 4.992C24.7527 4.544 24.518 3.97867 24.518 3.296C24.518 2.61333 24.7527 2.05867 25.222 1.632C25.7127 1.184 26.3313 0.959999 27.078 0.959999C27.8247 0.959999 28.4327 1.184 28.902 1.632C29.3927 2.05867 29.638 2.61333 29.638 3.296C29.638 3.97867 29.3927 4.544 28.902 4.992C28.4327 5.44 27.8247 5.664 27.078 5.664ZM25.03 24V8.128H29.126V24H25.03ZM32.4413 24V8.128H36.0573L36.3773 10.816C36.8679 9.87733 37.5719 9.13067 38.4893 8.576C39.4279 8.02133 40.5266 7.744 41.7853 7.744C43.7479 7.744 45.2733 8.36267 46.3612 9.6C47.4492 10.8373 47.9932 12.6507 47.9932 15.04V24H43.8973V15.424C43.8973 14.0587 43.6199 13.0133 43.0653 12.288C42.5106 11.5627 41.6466 11.2 40.4733 11.2C39.3213 11.2 38.3719 11.6053 37.6253 12.416C36.8999 13.2267 36.5373 14.3573 36.5373 15.808V24H32.4413ZM50.95 24V0.959999H55.046V14.56L60.678 8.128H65.542L59.046 15.36L66.598 24H61.478L55.046 16.032V24H50.95ZM74.481 24.384C72.945 24.384 71.5583 24.032 70.321 23.328C69.105 22.624 68.1343 21.6533 67.409 20.416C66.705 19.1573 66.353 17.7067 66.353 16.064C66.353 14.4213 66.7157 12.9813 67.441 11.744C68.1663 10.4853 69.137 9.504 70.353 8.8C71.5903 8.096 72.977 7.744 74.513 7.744C76.0277 7.744 77.393 8.096 78.609 8.8C79.8463 9.504 80.817 10.4853 81.521 11.744C82.2463 12.9813 82.609 14.4213 82.609 16.064C82.609 17.7067 82.2463 19.1573 81.521 20.416C80.817 21.6533 79.8463 22.624 78.609 23.328C77.3717 24.032 75.9957 24.384 74.481 24.384ZM74.481 20.832C75.5477 20.832 76.4757 20.4373 77.265 19.648C78.0543 18.8373 78.449 17.6427 78.449 16.064C78.449 14.4853 78.0543 13.3013 77.265 12.512C76.4757 11.7013 75.5583 11.296 74.513 11.296C73.425 11.296 72.4863 11.7013 71.697 12.512C70.929 13.3013 70.545 14.4853 70.545 16.064C70.545 17.6427 70.929 18.8373 71.697 19.648C72.4863 20.4373 73.4143 20.832 74.481 20.832ZM87.0712 24.224C86.3246 24.224 85.7059 23.9893 85.2152 23.52C84.7459 23.0507 84.5112 22.4853 84.5112 21.824C84.5112 21.1413 84.7459 20.5653 85.2152 20.096C85.7059 19.6267 86.3246 19.392 87.0712 19.392C87.8179 19.392 88.4259 19.6267 88.8952 20.096C89.3859 20.5653 89.6312 21.1413 89.6312 21.824C89.6312 22.4853 89.3859 23.0507 88.8952 23.52C88.4259 23.9893 87.8179 24.224 87.0712 24.224Z" fill="#3A86FF"/>
</svg>
