<svg width="40" height="40" viewBox="0 0 40 40" fill="none" xmlns="http://www.w3.org/2000/svg">
<rect width="40" height="40" rx="20" fill="#EBF3FF"/>
<path d="M20.4875 26.0119C20.184 25.842 19.8141 25.842 19.5106 26.0119L15.4255 28.2986C14.6809 28.7154 13.7899 28.0681 13.9562 27.2311L14.8685 22.6392C14.9362 22.2981 14.8219 21.9462 14.5665 21.7101L11.1289 18.5314C10.5024 17.9521 10.8427 16.9047 11.6901 16.8042L16.3394 16.2527C16.6847 16.2118 16.984 15.9944 17.1296 15.6786L19.091 11.4269C19.4484 10.6521 20.5496 10.6521 20.9071 11.4269L22.8684 15.6786C23.0141 15.9944 23.3133 16.2118 23.6587 16.2527L28.308 16.8042C29.1554 16.9047 29.4957 17.9521 28.8691 18.5314L25.4315 21.7101C25.1762 21.9462 25.0618 22.2981 25.1296 22.6392L26.0418 27.2311C26.2081 28.0681 25.3172 28.7154 24.5726 28.2986L20.4875 26.0119Z" fill="#3A86FF"/>
</svg>
