<svg width="116" height="20" viewBox="0 0 116 20" fill="none" xmlns="http://www.w3.org/2000/svg">
<path d="M10.4876 15.4899C10.1841 15.32 9.81415 15.32 9.51067 15.4899L6.01332 17.4476C5.26872 17.8644 4.37777 17.2171 4.54404 16.3801L5.32504 12.4489C5.39281 12.1078 5.27848 11.7559 5.02313 11.5198L2.08009 8.79842C1.45355 8.21908 1.79383 7.17167 2.64123 7.07116L6.62164 6.59909C6.96697 6.55813 7.26623 6.34071 7.4119 6.02493L9.09108 2.3849C9.44851 1.61009 10.5497 1.61009 10.9072 2.38491L12.5863 6.02494C12.732 6.34071 13.0313 6.55813 13.3766 6.59909L17.357 7.07117C18.2044 7.17167 18.5447 8.21908 17.9181 8.79842L14.9751 11.5198C14.7198 11.7559 14.6054 12.1078 14.6732 12.4489L15.4542 16.3802C15.6205 17.2171 14.7295 17.8644 13.9849 17.4476L10.4876 15.4899Z" fill="#3A86FF"/>
<path d="M34.4876 15.4899C34.1841 15.32 33.8141 15.32 33.5107 15.4899L30.0133 17.4476C29.2687 17.8644 28.3778 17.2171 28.544 16.3801L29.325 12.4489C29.3928 12.1078 29.2785 11.7559 29.0231 11.5198L26.0801 8.79842C25.4536 8.21908 25.7938 7.17167 26.6412 7.07116L30.6216 6.59909C30.967 6.55813 31.2662 6.34071 31.4119 6.02493L33.0911 2.3849C33.4485 1.61009 34.5497 1.61009 34.9072 2.38491L36.5863 6.02494C36.732 6.34071 37.0313 6.55813 37.3766 6.59909L41.357 7.07117C42.2044 7.17167 42.5447 8.21908 41.9181 8.79842L38.9751 11.5198C38.7198 11.7559 38.6054 12.1078 38.6732 12.4489L39.4542 16.3802C39.6205 17.2171 38.7295 17.8644 37.9849 17.4476L34.4876 15.4899Z" fill="#3A86FF"/>
<path d="M58.4876 15.4899C58.1841 15.32 57.8141 15.32 57.5107 15.4899L54.0133 17.4476C53.2687 17.8644 52.3778 17.2171 52.544 16.3801L53.325 12.4489C53.3928 12.1078 53.2785 11.7559 53.0231 11.5198L50.0801 8.79842C49.4536 8.21908 49.7938 7.17167 50.6412 7.07116L54.6216 6.59909C54.967 6.55813 55.2662 6.34071 55.4119 6.02493L57.0911 2.3849C57.4485 1.61009 58.5497 1.61009 58.9072 2.38491L60.5863 6.02494C60.732 6.34071 61.0313 6.55813 61.3766 6.59909L65.357 7.07117C66.2044 7.17167 66.5447 8.21908 65.9181 8.79842L62.9751 11.5198C62.7198 11.7559 62.6054 12.1078 62.6732 12.4489L63.4542 16.3802C63.6205 17.2171 62.7295 17.8644 61.9849 17.4476L58.4876 15.4899Z" fill="#3A86FF"/>
<path d="M82.4876 15.4899C82.1841 15.32 81.8141 15.32 81.5107 15.4899L78.0133 17.4476C77.2687 17.8644 76.3778 17.2171 76.544 16.3801L77.325 12.4489C77.3928 12.1078 77.2785 11.7559 77.0231 11.5198L74.0801 8.79842C73.4536 8.21908 73.7938 7.17167 74.6412 7.07116L78.6216 6.59909C78.967 6.55813 79.2662 6.34071 79.4119 6.02493L81.0911 2.3849C81.4485 1.61009 82.5497 1.61009 82.9072 2.38491L84.5863 6.02494C84.732 6.34071 85.0313 6.55813 85.3766 6.59909L89.357 7.07117C90.2044 7.17167 90.5447 8.21908 89.9181 8.79842L86.9751 11.5198C86.7198 11.7559 86.6054 12.1078 86.6732 12.4489L87.4542 16.3802C87.6205 17.2171 86.7295 17.8644 85.9849 17.4476L82.4876 15.4899Z" fill="#3A86FF"/>
<path d="M106.488 15.4899C106.184 15.32 105.814 15.32 105.511 15.4899L102.013 17.4476C101.269 17.8644 100.378 17.2171 100.544 16.3801L101.325 12.4489C101.393 12.1078 101.278 11.7559 101.023 11.5198L98.0801 8.79842C97.4536 8.21908 97.7938 7.17167 98.6412 7.07116L102.622 6.59909C102.967 6.55813 103.266 6.34071 103.412 6.02493L105.091 2.3849C105.449 1.61009 106.55 1.61009 106.907 2.38491L108.586 6.02494C108.732 6.34071 109.031 6.55813 109.377 6.59909L113.357 7.07117C114.204 7.17167 114.545 8.21908 113.918 8.79842L110.975 11.5198C110.72 11.7559 110.605 12.1078 110.673 12.4489L111.454 16.3802C111.62 17.2171 110.73 17.8644 109.985 17.4476L106.488 15.4899Z" fill="#3A86FF"/>
</svg>
